<svg width="85" height="55" viewBox="0 0 85 55" fill="none" xmlns="http://www.w3.org/2000/svg">
<path d="M33.0417 23.0934L31.2817 22.9034C31.0517 22.8734 30.8617 23.0434 30.8317 23.2634C30.8117 23.4834 30.9717 23.6834 31.1917 23.7134L31.9117 23.7934C31.9117 23.7934 31.8717 23.8834 31.8617 23.9434C31.8317 24.2034 32.0217 24.4434 32.2817 24.4734C32.5417 24.5034 32.7817 24.3134 32.8117 24.0534C32.8117 24.0034 32.8117 23.9534 32.8017 23.9034L32.9517 23.9234C32.9517 23.9234 32.9817 23.9234 32.9917 23.9234C33.1917 23.9234 33.3717 23.7734 33.3917 23.5634C33.4117 23.3434 33.2517 23.1434 33.0317 23.1134L33.0417 23.0934Z" fill="black"/>
<path d="M39.7317 23.8134L37.5917 23.5834C37.3517 23.5534 37.1717 23.7234 37.1417 23.9434C37.1217 24.1634 37.2817 24.3634 37.5017 24.3934L38.6517 24.5134C38.6517 24.5134 38.6117 24.5934 38.6117 24.6434C38.5817 24.9034 38.7717 25.1434 39.0317 25.1734C39.2917 25.2034 39.5317 25.0134 39.5617 24.7534C39.5617 24.7034 39.5617 24.6634 39.5517 24.6234H39.6417C39.6417 24.6234 39.6717 24.6334 39.6817 24.6334C39.8817 24.6334 40.0617 24.4834 40.0817 24.2734C40.1017 24.0534 39.9417 23.8534 39.7217 23.8234L39.7317 23.8134Z" fill="black"/>
</svg>
