<svg width="85" height="55" viewBox="0 0 85 55" fill="none" xmlns="http://www.w3.org/2000/svg">
<path d="M32.9787 24.3279C32.8387 24.3279 32.7087 24.2579 32.6287 24.1279C32.4887 23.8979 32.3287 23.7579 32.1487 23.7279C31.8887 23.6779 31.5787 23.8579 31.4887 23.9279C31.3087 24.0679 31.0587 24.0379 30.9187 23.8579C30.7787 23.6879 30.8087 23.4279 30.9787 23.2879C31.0387 23.2379 31.6087 22.8079 32.2787 22.9179C32.5687 22.9679 32.9787 23.1479 33.3087 23.6979C33.4287 23.8879 33.3587 24.1379 33.1687 24.2579C33.0987 24.2979 33.0287 24.3179 32.9587 24.3179L32.9787 24.3279Z" fill="black"/>
<path d="M39.7287 25.2179C39.5987 25.2179 39.4687 25.1579 39.3987 25.0379C39.3887 25.0279 39.1187 24.6479 38.7287 24.5879C38.4987 24.5479 38.2787 24.6179 38.0287 24.7979C37.8487 24.9279 37.5987 24.8879 37.4687 24.7079C37.3387 24.5279 37.3787 24.2679 37.5587 24.1379C37.9887 23.8279 38.4387 23.7179 38.8787 23.7979C39.5987 23.9279 40.0287 24.5179 40.0687 24.5879C40.1987 24.7679 40.1487 25.0279 39.9587 25.1479C39.8887 25.1979 39.8087 25.2179 39.7287 25.2179Z" fill="black"/>
</svg>
