<svg width="85" height="55" viewBox="0 0 85 55" fill="none" xmlns="http://www.w3.org/2000/svg">
<path d="M38.9125 25.1986C38.8325 25.1986 38.7525 25.1986 38.6725 25.1786C38.3825 25.1286 37.9725 24.9486 37.6425 24.3986C37.5225 24.2086 37.5925 23.9586 37.7825 23.8386C37.9725 23.7186 38.2225 23.7886 38.3425 23.9786C38.4825 24.2086 38.6425 24.3486 38.8225 24.3786C39.0925 24.4286 39.3925 24.2486 39.4825 24.1786C39.6625 24.0386 39.9125 24.0686 40.0525 24.2486C40.1925 24.4186 40.1625 24.6786 39.9925 24.8186C39.9425 24.8586 39.4925 25.2086 38.9325 25.2086L38.9125 25.1986Z" fill="black"/>
<path d="M32.3624 24.3386C32.2724 24.3386 32.1824 24.3386 32.0924 24.3186C31.3724 24.1886 30.9424 23.5886 30.9024 23.5286C30.7724 23.3486 30.8224 23.0886 31.0124 22.9686C31.1924 22.8486 31.4524 22.8886 31.5724 23.0686C31.5724 23.0686 31.8524 23.4586 32.2424 23.5186C32.4724 23.5586 32.6924 23.4886 32.9424 23.3086C33.1224 23.1786 33.3724 23.2186 33.5024 23.3986C33.6324 23.5786 33.5924 23.8386 33.4124 23.9686C33.0724 24.2186 32.7124 24.3386 32.3624 24.3386Z" fill="black"/>
</svg>
