<svg width="85" height="55" viewBox="0 0 85 55" fill="none" xmlns="http://www.w3.org/2000/svg">
<path d="M32.3895 24.3127C32.6458 24.0562 32.6456 23.6404 32.389 23.3842C32.1325 23.1279 31.7168 23.1281 31.4605 23.3846C31.2042 23.6412 31.2044 24.0569 31.461 24.3132C31.7175 24.5695 32.1332 24.5692 32.3895 24.3127Z" fill="black"/>
<path d="M38.2333 25.1777C38.4896 24.9212 38.4894 24.5054 38.2328 24.2492C37.9763 23.9929 37.5606 23.9931 37.3043 24.2496C37.048 24.5062 37.0482 24.9219 37.3048 25.1782C37.5613 25.4345 37.9771 25.4342 38.2333 25.1777Z" fill="black"/>
<path d="M38.2734 24.3946C38.2734 24.3946 38.6527 24.5731 39.1547 24.3946C39.1547 24.3946 38.9316 24.8743 38.24 24.8743L38.2734 24.3834V24.3946Z" fill="black"/>
<path d="M31.6415 23.29C31.6415 23.29 31.2175 23.301 30.8301 22.9415C30.8301 22.9415 30.8358 23.4774 31.476 23.7567L31.6415 23.29Z" fill="black"/>
</svg>
