<svg width="85" height="85" viewBox="0 0 85 85" fill="none" xmlns="http://www.w3.org/2000/svg">
<g clip-path="url(#clip0_69_2670)">
<path d="M75.83 67.67C68.18 65.78 57.89 63.49 54.8 62.8C54.07 59.76 53.22 55.84 52.37 51.05C50.59 40.96 50.82 35.85 50.82 35.85C50.82 35.85 51.75 35.43 52.75 34.62C53.53 33.99 54.35 33.12 54.81 32.02C55.82 29.63 55.14 27.67 53.56 26.89C52.1 26.17 50.09 27.92 50.09 27.92C50.09 27.92 51.39 18.27 45.11 15.47C38.9 12.7 32.51 14.44 30.65 21.88C27.06 36.19 29.84 44.03 33.89 46.17C35.3 46.91 36.79 46.76 36.79 46.76L36.81 46.74L35.57 62.78C31.75 63.63 16.73 66.98 9.55003 68.93C17.29 78.36 29.03 84.38 42.18 84.38C55.33 84.38 68.11 77.81 75.82 67.65L75.83 67.67Z" fill="#F25178"/>
<path opacity="0.2" d="M36.81 46.76C36.81 46.76 40.53 46.89 44.67 42.02V45.86C44.67 45.86 41.43 50.31 36.38 52.31L36.81 46.76Z" fill="black"/>
<path d="M50.45 30.74C50.4 30.74 50.35 30.74 50.3 30.71C50.09 30.63 49.98 30.38 50.07 30.17C50.59 28.86 51.81 28.56 51.86 28.55C52.08 28.5 52.3 28.64 52.36 28.86C52.41 29.08 52.27 29.3 52.05 29.36C52.01 29.36 51.2 29.58 50.84 30.48C50.78 30.64 50.62 30.74 50.45 30.74Z" fill="black"/>
<path d="M33.95 35.88C33.95 35.88 33.91 35.88 33.89 35.88C33.89 35.88 32.19 35.64 31.77 35.53C31.58 35.48 31.49 35.33 31.49 35.33C31.4 35.19 31.38 35.02 31.43 34.87L33.49 28.71C33.56 28.49 33.79 28.37 34.01 28.45C34.23 28.52 34.34 28.76 34.27 28.97L32.32 34.8L34 35.06C34.23 35.09 34.38 35.31 34.35 35.53C34.32 35.74 34.14 35.88 33.94 35.88H33.95Z" fill="black"/>
</g>
<defs>
<clipPath id="clip0_69_2670">
<rect width="84.38" height="84.38" fill="white"/>
</clipPath>
</defs>
</svg>
