<svg width="85" height="85" viewBox="0 0 85 85" fill="none" xmlns="http://www.w3.org/2000/svg">
<g clip-path="url(#clip0_69_2671)">
<path d="M75.85 67.63C68.2 65.74 57.88 63.44 54.79 62.75C54.06 59.71 53.2 55.79 52.36 51C50.58 40.91 50.81 35.81 50.81 35.8C50.81 35.8 50.92 35.75 51.09 35.66C51.84 35.26 53.94 34.01 54.8 31.98C55.8 29.59 55.13 27.64 53.56 26.86C53.19 26.68 52.79 26.65 52.4 26.72C51.22 26.91 50.09 27.89 50.09 27.89C50.09 27.89 51.48 18.12 43.24 15.68C36.18 13.59 31.8 16.73 30.23 24.2C27.61 36.72 26.67 42.99 32.09 46.12C34.17 47.32 36.79 46.71 36.79 46.71L35.55 62.75C31.73 63.6 16.7 66.95 9.53 68.9C17.27 78.35 29.02 84.38 42.19 84.38C55.36 84.38 68.15 77.8 75.85 67.63Z" fill="#F25178"/>
<path opacity="0.2" d="M36.8 46.71C36.8 46.71 41.32 45.9 44.66 41.97V45.81C44.66 45.81 41.42 50.26 36.37 52.26L36.8 46.71Z" fill="black"/>
<path d="M50.44 30.69C50.39 30.69 50.34 30.69 50.29 30.66C50.08 30.58 49.97 30.33 50.06 30.12C50.58 28.81 51.8 28.51 51.85 28.5C52.07 28.45 52.29 28.59 52.35 28.81C52.4 29.03 52.26 29.25 52.04 29.31C52 29.31 51.19 29.53 50.83 30.43C50.77 30.59 50.61 30.69 50.44 30.69Z" fill="black"/>
<path d="M33.94 35.83C33.94 35.83 33.9 35.83 33.88 35.83C33.88 35.83 32.18 35.59 31.76 35.48C31.57 35.43 31.48 35.28 31.48 35.28C31.39 35.14 31.37 34.97 31.42 34.82L33.48 28.66C33.55 28.44 33.78 28.32 34 28.4C34.22 28.47 34.33 28.71 34.26 28.92L32.31 34.75L33.99 35.01C34.22 35.04 34.37 35.26 34.34 35.48C34.31 35.69 34.13 35.83 33.93 35.83H33.94Z" fill="black"/>
</g>
<defs>
<clipPath id="clip0_69_2671">
<rect width="84.38" height="84.38" fill="white"/>
</clipPath>
</defs>
</svg>
