<svg width="85" height="85" viewBox="0 0 85 85" fill="none" xmlns="http://www.w3.org/2000/svg">
<g clip-path="url(#clip0_69_2661)">
<path d="M75.82 67.65C68.17 65.76 57.85 63.46 54.77 62.77C54.04 59.73 53.19 55.79 52.35 51.02C50.57 40.93 50.8 35.82 50.8 35.82C50.8 35.82 53.73 34.49 54.78 32C55.78 29.61 55.11 27.66 53.54 26.88C52.08 26.16 50.07 27.91 50.07 27.91C50.07 27.91 51.43 18.74 45.12 15.47C42.01 13.85 33.08 12.25 31.22 19.69C27.64 33.98 26.3 45.38 30.42 47.37C32.73 48.49 36.78 46.73 36.78 46.73L35.55 62.77C31.74 63.61 16.74 66.96 9.55002 68.92C17.29 78.35 29.03 84.38 42.19 84.38C55.35 84.38 68.12 77.81 75.83 67.66L75.82 67.65Z" fill="#FF9FB6"/>
<path opacity="0.2" d="M36.78 46.73C36.78 46.73 41.22 45.25 44.64 41.99V45.83C44.64 45.83 41.4 50.28 36.35 52.28L36.78 46.73Z" fill="black"/>
<path d="M50.42 30.71C50.37 30.71 50.32 30.71 50.27 30.68C50.06 30.6 49.95 30.35 50.04 30.14C50.56 28.83 51.78 28.53 51.83 28.52C52.05 28.47 52.27 28.61 52.33 28.83C52.38 29.05 52.24 29.27 52.02 29.33C51.98 29.33 51.17 29.55 50.81 30.45C50.75 30.61 50.59 30.71 50.42 30.71Z" fill="black"/>
<path d="M33.93 35.85C33.93 35.85 33.89 35.85 33.87 35.85C33.87 35.85 32.17 35.61 31.75 35.5C31.56 35.45 31.47 35.3 31.47 35.3C31.38 35.16 31.36 34.99 31.41 34.84L33.47 28.68C33.54 28.46 33.77 28.34 33.99 28.42C34.21 28.49 34.32 28.73 34.25 28.94L32.3 34.77L33.98 35.03C34.21 35.06 34.36 35.28 34.33 35.5C34.3 35.71 34.12 35.85 33.92 35.85H33.93Z" fill="black"/>
</g>
<defs>
<clipPath id="clip0_69_2661">
<rect width="84.38" height="84.38" fill="white"/>
</clipPath>
</defs>
</svg>
