<svg width="85" height="85" viewBox="0 0 85 85" fill="none" xmlns="http://www.w3.org/2000/svg">
<g clip-path="url(#clip0_69_2672)">
<path d="M75.835 67.66C68.175 65.77 57.825 63.46 54.735 62.77C54.005 59.74 53.155 55.8 52.315 51.03C50.565 41.09 50.765 36 50.765 35.85C50.765 35.85 53.695 34.52 54.745 32.03C55.245 30.83 55.325 29.75 55.085 28.86C54.845 27.97 54.285 27.29 53.495 26.9C52.045 26.18 50.045 27.91 50.035 27.93C50.045 27.78 50.835 18.22 42.915 15.06C38.455 13.29 32.325 14.53 30.585 22.19C27.325 36.56 28.135 41.93 29.425 43.77C30.985 45.98 36.725 46.76 36.735 46.77L35.505 62.78C31.715 63.62 16.755 66.96 9.54499 68.91C17.285 78.35 29.035 84.38 42.195 84.38C55.355 84.38 68.115 77.82 75.825 67.67L75.835 67.66Z" fill="#F25178"/>
<path opacity="0.2" d="M36.745 46.74C36.745 46.74 41.185 47.32 44.605 44.06V46.87C44.605 46.87 41.365 50.29 36.315 52.29L36.745 46.74Z" fill="black"/>
<path d="M50.385 30.73C50.335 30.73 50.285 30.73 50.235 30.7C50.025 30.62 49.915 30.37 50.005 30.16C50.525 28.85 51.745 28.55 51.795 28.54C52.015 28.49 52.235 28.63 52.295 28.85C52.345 29.07 52.205 29.29 51.985 29.35C51.945 29.35 51.135 29.57 50.775 30.47C50.715 30.63 50.555 30.73 50.385 30.73Z" fill="black"/>
<path d="M33.895 35.86C33.895 35.86 33.855 35.86 33.835 35.86C33.835 35.86 32.135 35.62 31.715 35.51C31.525 35.46 31.435 35.31 31.435 35.31C31.345 35.17 31.325 35 31.375 34.85L33.435 28.69C33.505 28.47 33.735 28.35 33.955 28.43C34.175 28.5 34.285 28.74 34.215 28.95L32.265 34.78L33.945 35.04C34.175 35.07 34.325 35.29 34.295 35.51C34.265 35.72 34.085 35.86 33.885 35.86H33.895Z" fill="black"/>
</g>
<defs>
<clipPath id="clip0_69_2672">
<rect width="84.38" height="84.38" fill="white"/>
</clipPath>
</defs>
</svg>
