<svg width="85" height="69" viewBox="0 0 85 69" fill="none" xmlns="http://www.w3.org/2000/svg">
<g opacity="0.48">
<path d="M32.4647 27.1156C31.8211 26.8013 29.4441 26.193 28.9762 26.1783C28.4757 26.1626 28.0901 28.7317 28.6501 28.9345C30.0608 29.4471 31.4916 29.6663 31.6789 29.5959C31.9108 29.4943 32.4999 28.4236 32.7594 27.7892C32.889 27.4774 32.7431 27.2659 32.4644 27.1265L32.4647 27.1156Z" fill="#F47253"/>
</g>
<path opacity="0.61" d="M36.4955 27.7758C37.3269 27.6603 38.654 27.7128 41.2241 28.0658C41.5386 28.1083 41.8446 28.4229 41.8241 28.7272C41.7829 29.3467 41.7691 30.479 41.51 30.754C41.1264 31.1776 36.543 30.7723 36.1714 30.4666C35.9804 30.3081 36.0098 29.0239 36.0194 28.3707C36.0286 28.077 36.1783 27.8203 36.4955 27.7758Z" fill="#71BCEA"/>
<path d="M43.0804 29.6489L47.9137 29.9563C48.2082 29.9437 48.4544 29.7336 48.4854 29.4405L48.5457 28.9088C48.577 28.6048 48.357 28.3256 48.0531 28.2943C47.1629 28.201 44.0198 27.8268 42.7604 27.7002C42.5285 27.4533 42.2072 27.2798 41.8607 27.2145C41.146 27.0832 40.4844 26.997 39.8873 26.9347L39.8111 26.9323C39.2249 26.8704 38.7034 26.8322 38.2464 26.8179L34.7691 26.5671L30.0144 25.3723C29.636 25.2842 29.214 25.1947 28.7703 25.1046C28.4018 25.0494 27.7367 25.0721 27.42 26.1404C27.2618 26.6691 26.5674 29.3592 28.0427 29.8957C28.0645 29.8963 29.5506 30.4331 30.8185 30.6362C31.4037 30.7309 31.9365 30.7585 32.2565 30.6269C32.6094 30.4855 32.9219 30.2448 33.8365 28.5201C34.0857 28.5606 34.3458 28.6014 34.6273 28.6538C34.6528 28.8833 34.6531 29.221 34.6547 29.5151C34.6577 30.4627 34.663 30.9856 35.1193 31.3703C35.3954 31.5968 36.0971 31.7931 36.9424 31.9285C38.4486 32.1718 40.4064 32.2551 41.2378 32.1396C41.6972 32.0777 42.3334 31.9344 42.6547 31.4108C42.9533 30.9191 42.9956 30.267 43.0481 29.637L43.0804 29.6489ZM32.7597 27.7783C32.4999 28.4237 31.9108 29.4943 31.6793 29.585C31.4916 29.6663 30.0611 29.4362 28.6504 28.9236C28.0905 28.7209 28.4764 26.1409 28.9766 26.1675C29.4444 26.1822 31.8214 26.7905 32.465 27.1047C32.6044 27.1744 32.7108 27.254 32.7618 27.3645L32.7975 27.6162C32.7975 27.6162 32.7944 27.7141 32.7601 27.7675L32.7597 27.7783ZM41.4988 30.7646C41.1152 31.1882 36.5318 30.7829 36.1602 30.4772C35.9691 30.3187 35.9986 29.0345 36.0082 28.3813C36.0174 28.0875 36.167 27.8308 36.4843 27.7863C37.3156 27.6708 38.6427 27.7234 41.2129 28.0764C41.5274 28.1189 41.8334 28.4335 41.8129 28.7378C41.7717 29.3573 41.7579 30.4895 41.4988 30.7646Z" fill="#F4F4F4"/>
</svg>
