<svg width="85" height="69" viewBox="0 0 85 69" fill="none" xmlns="http://www.w3.org/2000/svg">
<path opacity="0.48" d="M36.1628 27.7283C36.9401 27.5894 38.6378 27.4228 41.3866 27.8518C41.6775 27.8994 41.8821 28.1798 41.8227 28.4805C41.7049 29.0712 41.5031 29.9932 41.2312 30.4718C40.8151 31.2218 36.5818 30.6505 36.2361 30.3576C36.0534 30.1994 35.8298 29.0212 35.7267 28.3345C35.6757 28.0458 35.8742 27.7792 36.1628 27.7283Z" fill="#F47253"/>
<path opacity="0.48" d="M33.0099 27.2963C32.4021 27.0021 31.1769 26.5221 29.131 26.1771C28.926 26.148 28.4558 28.9915 28.9864 29.1696C30.3111 29.6366 31.9351 29.9333 32.2314 29.7956C32.448 29.6945 32.9806 28.616 33.2659 27.9856C33.3874 27.7231 33.2733 27.407 33.0109 27.2854L33.0099 27.2963Z" fill="#F47253"/>
<path d="M48.1611 27.741L42.1804 28.0205C42.1536 27.9525 42.1377 27.8855 42.0883 27.8265C41.933 27.6051 41.705 27.4647 41.4467 27.42C38.622 26.9843 36.8691 27.157 36.081 27.2949C35.948 27.3159 35.8229 27.3704 35.7068 27.4476C34.8579 26.9134 33.985 27.022 33.5043 27.1434C33.4144 27.048 33.3127 26.9625 33.1874 26.8967C32.4848 26.5614 31.2163 26.0775 29.1911 25.7453C28.7287 25.6607 28.5821 26.205 28.5157 26.4614C28.5129 26.494 27.8325 29.2424 28.8288 29.5928C29.465 29.813 30.7648 30.1904 31.6432 30.2681C31.9685 30.2969 32.2424 30.2883 32.4019 30.215C32.5614 30.1417 32.8006 30.0318 33.6517 28.1946C33.6792 28.1315 33.684 28.0772 33.7006 28.0131C34.0147 27.9207 34.6788 27.8265 35.2987 28.2311C35.2929 28.2961 35.2881 28.3503 35.2824 28.4154C35.6084 30.4114 35.8119 30.5824 35.9432 30.7033C36.2079 30.9234 37.2718 31.1269 38.367 31.2238C39.2453 31.3015 40.1402 31.3151 40.6742 31.2094C41.152 31.1205 41.462 30.9513 41.6053 30.6907C41.8516 30.2535 42.0352 29.5376 42.1677 28.9045L48.1928 28.6181C48.4342 28.6067 48.6269 28.4052 48.6164 28.1529C48.605 27.9115 48.4143 27.7197 48.1512 27.7292L48.1611 27.741ZM32.0698 29.3988C31.8255 29.4427 30.4994 29.238 29.2161 28.7965C29.1059 28.4371 29.2242 27.2236 29.3707 26.6792C31.1988 27.0158 32.3076 27.4527 32.8099 27.7048C32.8513 27.7303 32.88 27.7766 32.8545 27.818C32.3289 28.9409 32.05 29.3752 32.0698 29.3988ZM40.8699 30.2322C40.4441 30.5989 37.2462 30.305 36.5497 30.0248C36.4774 29.8544 36.3362 29.3502 36.1592 28.2635C36.1522 28.2192 36.1786 28.1669 36.2338 28.1608C36.9776 28.0299 38.6202 27.8693 41.3157 28.2827L41.3938 28.388C41.2303 29.2478 41.0279 29.9293 40.8709 30.2214L40.8699 30.2322Z" fill="black"/>
</svg>
