<svg width="85" height="69" viewBox="0 0 85 69" fill="none" xmlns="http://www.w3.org/2000/svg">
<path opacity="0.15" d="M35.8511 28.0336C35.8511 28.0336 38.0283 25.3884 44.7885 26.662C44.7885 26.662 45.5396 31.811 41.2179 32.1703C37.9303 32.4424 35.7423 29.8842 35.8511 28.0336Z" fill="black"/>
<path opacity="0.15" d="M33.5978 27.7398C33.5978 27.7398 31.8016 25.3558 27.3275 24.67C27.3275 24.67 26.1192 28.5236 29.2543 30.1347C31.4206 31.245 33.2821 30.0585 33.5978 27.7398Z" fill="black"/>
<path d="M45.2239 26.6076L45.2101 26.5079C45.1924 26.3792 45.0937 26.2765 44.9657 26.2536L44.8755 26.2375C39.1604 25.1598 36.5805 26.8036 35.7967 27.4894C34.9694 27.0322 34.1747 27.1302 33.7502 27.239C33.1623 26.5967 31.2464 24.8332 27.4146 24.2345L27.3002 24.2177C27.1532 24.1961 27.0126 24.2853 26.9695 24.4275L26.9356 24.5393C26.9356 24.5393 25.6511 28.7739 29.0801 30.5266C29.6897 30.8422 30.2993 30.9946 30.8872 30.9946C31.377 30.9946 31.8342 30.8858 32.2697 30.6681C33.1623 30.2 33.7719 29.2638 34.0005 28.0881C34.2945 28.0119 34.8714 27.9466 35.4592 28.3058C35.5028 29.242 35.9818 30.2544 36.8091 31.0708C37.8541 32.0832 39.2802 32.6493 40.7824 32.6493C40.9457 32.6493 41.1199 32.6493 41.2832 32.6275C42.546 32.5187 43.5475 32.0288 44.2333 31.1579C45.6375 29.3944 45.2674 26.7383 45.2457 26.6185L45.2239 26.6076ZM31.8234 29.8843C31.1484 30.2326 30.3102 30.1782 29.4611 29.7428C27.4094 28.6822 27.4424 26.5477 27.6126 25.4593C27.6379 25.298 27.7937 25.1941 27.9535 25.2273C30.8972 25.8388 32.4896 27.2091 33.0363 27.7618C33.1031 27.8294 33.131 27.9258 33.1102 28.0185C32.9159 28.8834 32.4628 29.5545 31.8342 29.8843H31.8234ZM43.5148 30.5919C42.9814 31.2668 42.1976 31.6478 41.1743 31.7349C39.2149 31.8982 37.963 30.9838 37.3969 30.4286C36.7647 29.8168 36.3618 29.0426 36.2954 28.3566C36.2869 28.2693 36.323 28.1845 36.3908 28.1288C37.0315 27.6018 39.2456 26.2072 44.1388 27.0033C44.2758 27.0256 44.3815 27.1404 44.3859 27.2791C44.4113 28.0722 44.3383 29.5527 43.5148 30.5919Z" fill="#CAFFE2"/>
</svg>
