<svg width="85" height="69" viewBox="0 0 85 69" fill="none" xmlns="http://www.w3.org/2000/svg">
<path d="M47.833 28.6446L42.4881 28.6011C42.3792 28.0459 42.1615 27.5125 41.8022 27.0553C41.2035 26.2933 40.3544 25.8143 39.3856 25.6945C37.6765 25.4877 36.0872 26.5219 35.5429 28.1003C34.9333 27.8935 34.389 27.8826 34.008 27.9044C33.9644 27.2294 33.7576 26.5981 33.3875 26.0538C32.8649 25.2918 32.1138 24.8128 31.2538 24.7039C29.4903 24.4971 27.8683 25.934 27.6288 27.9152C27.3893 29.8965 28.6194 31.6818 30.3721 31.8886C30.4918 31.8995 30.6007 31.9104 30.7095 31.9104C32.288 31.9104 33.6814 30.5932 33.9535 28.797C34.2474 28.7643 34.77 28.7535 35.3578 28.9712C35.1945 30.898 36.577 32.6397 38.5147 32.8683C38.6671 32.8901 38.8086 32.8901 38.961 32.8901C39.7666 32.8901 40.5395 32.6179 41.1818 32.1172C41.9438 31.5185 42.4227 30.6694 42.5425 29.7005C42.5425 29.6243 42.5425 29.5481 42.5425 29.4719L47.8221 29.5155C48.0616 29.5155 48.2576 29.3195 48.2685 29.08C48.2685 28.8405 48.0725 28.6337 47.833 28.6337V28.6446ZM33.1044 28.5793C32.9194 30.0815 31.7437 31.1701 30.47 31.0177C29.1964 30.8653 28.3146 29.5264 28.4997 28.0241C28.6739 26.6198 29.7189 25.5748 30.8946 25.5748C30.9708 25.5748 31.0579 25.5748 31.1341 25.5857C31.7328 25.6619 32.2771 25.9993 32.6472 26.5545C33.0282 27.1206 33.2024 27.839 33.1044 28.5793ZM41.6607 29.6134C41.4757 31.1157 40.1041 32.1716 38.6236 31.9975C37.8942 31.9104 37.252 31.5402 36.8056 30.9742C36.3593 30.3972 36.1525 29.6788 36.2396 28.9603C36.4029 27.5778 37.5894 26.5545 38.9501 26.5545C39.059 26.5545 39.1679 26.5545 39.2767 26.5763C40.0061 26.6634 40.6483 27.0335 41.0947 27.5996C41.541 28.1765 41.7478 28.8841 41.6607 29.6134Z" fill="black"/>
</svg>
