<svg width="85" height="69" viewBox="0 0 85 69" fill="none" xmlns="http://www.w3.org/2000/svg">
<path opacity="0.61" d="M35.653 28.9419C35.5006 27.9731 35.9687 27.0151 36.8614 26.6015C37.5907 26.264 38.6902 26.0245 40.2686 26.3075C43.6324 26.9171 44.7645 28.1908 44.5794 29.5515C44.3944 30.9123 43.1425 33.3834 41.2919 33.4269C38.6466 33.5031 36.034 31.3586 35.653 28.931V28.9419Z" fill="black"/>
<path opacity="0.61" d="M33.1275 29.0726C33.9657 27.7554 33.5738 26.3184 32.0389 25.5347C31.3531 25.1863 30.3625 24.9904 29.3065 24.9142C26.9334 24.74 26.596 27.9513 26.7593 29.0835C26.9225 30.2156 27.6301 31.6308 28.9364 31.8811C29.7964 32.0444 32.028 30.7599 33.1166 29.0617L33.1275 29.0726Z" fill="black"/>
<path d="M40.3448 25.883C38.9297 25.6217 37.6887 25.7414 36.6763 26.2095C36.1973 26.4381 35.8163 26.7974 35.555 27.2328C34.9128 26.8409 34.227 26.8083 33.8351 26.8518C33.5847 26.1551 33.0404 25.5673 32.2457 25.1536C31.5599 24.8053 30.5802 24.5767 29.3501 24.4896C28.5554 24.4243 27.8696 24.6964 27.358 25.2516C26.3238 26.3619 26.2258 28.3649 26.3347 29.1705C26.5306 30.5421 27.3906 32.0553 28.8711 32.3383C28.9473 32.3492 29.0344 32.3601 29.1215 32.3601C30.3516 32.3601 32.4961 30.9014 33.5085 29.3229C33.8351 28.8113 33.9984 28.267 33.9984 27.7336C34.3032 27.7227 34.8148 27.7553 35.2394 28.0928C35.1849 28.3976 35.174 28.7133 35.2176 29.0399C35.6312 31.6634 38.3854 33.9167 41.1613 33.9059C41.2048 33.9059 41.2592 33.9059 41.3028 33.9059C43.5017 33.8405 44.8189 31.0538 45.0149 29.6386C45.1564 28.5827 44.7427 26.6885 40.3448 25.8939V25.883ZM32.7574 28.833C31.7232 30.4659 29.6767 31.5654 29.0344 31.4565C27.9785 31.2497 27.358 30.0849 27.2056 29.029C27.1076 28.3214 27.2273 26.6559 28.0002 25.8394C28.305 25.5128 28.6752 25.3496 29.1324 25.3496C29.1868 25.3496 29.2303 25.3496 29.2848 25.3496C30.3842 25.4258 31.266 25.6326 31.843 25.9265C32.4961 26.2531 32.9098 26.7212 33.0622 27.2655C33.1928 27.7662 33.0948 28.3105 32.7574 28.833ZM41.281 33.0023C41.281 33.0023 41.1939 33.0023 41.1504 33.0023C38.7881 33.0023 36.4368 31.1082 36.0884 28.8766C35.9687 28.0819 36.3497 27.3308 37.0464 27.0042C37.5907 26.7538 38.2221 26.6232 38.9297 26.6232C39.3324 26.6232 39.7461 26.6667 40.1924 26.7429C41.7709 27.026 44.3726 27.7662 44.144 29.4971C43.9807 30.6945 42.8595 32.9479 41.281 32.9914V33.0023Z" fill="black"/>
</svg>
