<svg width="85" height="69" viewBox="0 0 85 69" fill="none" xmlns="http://www.w3.org/2000/svg">
<path opacity="0.95" d="M30.9914 25.8286C30.9914 25.8286 29.2125 25.544 28.4723 26.0257C27.732 26.5075 28.2955 28.4674 29.765 29.5842C30.7262 30.3178 32.6487 30.2192 33.5989 28.5987C34.549 26.9783 32.7039 26.0586 30.9914 25.8177V25.8286Z" fill="black" fill-opacity="0.8"/>
<path opacity="0.95" d="M40.0116 27.2544C40.0116 27.2544 41.9984 27.5227 42.6311 28.2268C43.2637 28.931 42.065 30.6635 40.1559 31.3006C38.9017 31.7253 36.8817 31.0211 36.3822 29.1546C35.8827 27.288 38.1248 26.9527 40.0228 27.2544H40.0116Z" fill="black" fill-opacity="0.8"/>
<path d="M48.5205 28.4569L44.6736 27.7875C44.6519 27.7222 44.6192 27.6678 44.5757 27.6242C43.7157 26.8622 40.537 26.3832 37.6631 26.7425C37.2495 26.7969 36.8249 26.8187 36.4548 26.8295C35.6819 26.8513 34.909 26.7098 34.2014 26.405C33.9293 26.2853 33.6136 26.1437 33.2217 25.9478C30.8377 24.8157 27.9638 24.3911 27.0167 24.881C26.0697 25.3817 28.421 30.0082 30.2934 30.7049C32.1658 31.4125 33.6571 29.7905 34.3429 28.5931C34.5607 28.223 34.7784 27.6895 35.0614 27.7113C35.3989 27.7331 35.5295 28.3536 35.6819 28.9305C36.0411 30.2804 37.1188 32.2834 39.3287 32.1854C40.8309 32.1201 43.1278 30.3784 44.162 29.0394L48.1653 29.4657L48.5205 28.4569ZM33.5918 28.5931C32.6556 30.2042 30.7615 30.3021 29.8144 29.5728C28.3666 28.4624 27.8223 26.5139 28.5408 26.0349C29.2701 25.5559 31.0227 25.8389 31.0227 25.8389C32.7101 26.0784 34.5171 26.9928 33.5918 28.604V28.5931ZM40.1451 31.2383C38.915 31.652 36.9338 30.9662 36.4439 29.1482C35.9432 27.3303 38.153 27.0037 40.0145 27.2976C40.0145 27.2976 41.963 27.5589 42.5835 28.2447C43.204 28.9305 42.0284 30.6178 40.156 31.2383H40.1451Z" fill="black"/>
</svg>
