<svg width="85" height="69" viewBox="0 0 85 69" fill="none" xmlns="http://www.w3.org/2000/svg">
<path opacity="0.48" d="M38.0831 26.5361C36.5811 26.616 35.2337 27.6318 34.8456 29.1676C34.3712 31.0303 35.508 32.9216 37.3707 33.396C38.3292 33.6331 39.2976 33.4457 40.0693 32.9648C42.4073 31.9358 43.0388 27.5799 43.0388 27.5799C39.5848 26.3147 38.0722 26.5362 38.0722 26.5362L38.0831 26.5361Z" fill="#F47253"/>
<path opacity="0.48" d="M33.4847 29.0731C33.5787 27.4944 32.7372 26.1248 31.5276 25.6271C31.5276 25.6271 30.3503 24.955 27.1721 25.1588C27.1721 25.1588 26.5296 29.5039 28.1775 31.1762C28.6908 31.8608 29.4322 32.3271 30.2815 32.3794C31.9364 32.4733 33.3696 30.9893 33.4738 29.0731L33.4847 29.0731Z" fill="#F47253"/>
<path d="M43.201 27.1549C39.6817 25.8682 38.082 26.0899 38.0167 26.09L37.8861 26.1121C36.7325 26.2129 35.7216 26.8033 35.0706 27.6975C34.5583 27.4375 34.0683 27.3843 33.6874 27.407C33.3694 26.4934 32.7471 25.7329 31.9078 25.3104L31.7443 25.2237C31.7443 25.2237 30.4036 24.5086 27.1492 24.7125L26.79 24.7352L26.7364 25.0837C26.7042 25.2688 26.0837 29.6682 27.8625 31.4709C28.4741 32.275 29.3135 32.7519 30.2498 32.804C30.3152 32.8038 30.3696 32.8037 30.4349 32.8035C32.2528 32.7991 33.7946 31.1733 33.9092 29.0829C33.9303 28.8107 33.9079 28.5386 33.8746 28.2774C34.0923 28.2769 34.3537 28.3307 34.6153 28.4607C34.5395 28.6459 34.4638 28.842 34.4208 29.049C33.8925 31.1513 35.1715 33.2817 37.2629 33.81C37.5896 33.8963 37.9054 33.9282 38.232 33.9273C38.9287 33.9256 39.6249 33.728 40.2445 33.3563C42.7781 32.2397 43.4421 27.8075 43.4743 27.6224L43.5279 27.263L43.1901 27.1441L43.201 27.1549ZM30.313 31.933C29.6271 31.8911 28.9948 31.5334 28.547 30.9032L28.1647 30.3925C27.3995 29.0989 27.4482 26.7692 27.5758 25.5715C29.3283 25.4909 30.3956 25.6951 30.9185 25.8463L31.3653 26.0302C32.4332 26.463 33.1329 27.7023 33.0491 29.0415C32.9553 30.7181 31.7611 32.0274 30.313 31.933ZM40.3942 32.2674L40.3941 32.2456L39.8507 32.5844C39.1333 33.0325 38.2954 33.1652 37.4894 32.9712C35.8664 32.5616 34.8717 30.9093 35.2813 29.2755C35.6156 27.9683 36.7454 27.0511 38.106 26.9933L38.6612 26.9702C39.3035 27.0013 40.5776 27.1723 42.5605 27.8641C42.3777 28.779 41.7741 31.2298 40.4051 32.2673L40.3942 32.2674Z" fill="#FFCB2A"/>
</svg>
