<svg width="85" height="85" viewBox="0 0 85 85" fill="none" xmlns="http://www.w3.org/2000/svg">
<path d="M59.6606 42.9681C52.4873 28.0786 55.4791 17.6709 53.8041 13.7551C52.6378 11.0282 48.9517 10.3693 47.4163 12.9581C45.8223 11.9646 43.743 11.4448 42.0912 11.3986C37.2744 11.26 32.0603 12.9581 29.7961 23.0541C29.6364 24.1301 29.6141 24.9354 29.6205 25.3952C29.622 25.5016 29.754 25.521 29.7912 25.4213C30.473 23.5914 31.3918 21.509 33.0235 19.8772C33.0235 19.8772 34.8717 23.0885 38.3371 25.1792C42.7381 27.8476 44.1358 27.5819 42.7843 24.6825C42.7843 24.6825 47.4822 32.7337 48.6408 30.5043C48.6408 30.5043 48.9679 28.7948 50.8276 27.6165C51.4399 27.2238 52.288 27.0082 52.8569 27.0967C53.3767 27.1776 53.885 27.3971 54.1276 27.6165C55.6292 28.9218 55.2942 30.9317 54.3701 32.7337C53.4923 34.4779 50.6853 35.9334 50.6853 35.9334C50.4658 38.3938 51.4477 47.4384 51.9329 49.3675C52.4527 49.2057 52.2101 49.1711 52.6837 48.9862C52.9032 48.8938 52.6837 46.9532 52.9032 46.8608C53.1573 46.7453 53.5962 48.4549 53.8619 48.4549C54.7629 48.4318 55.5484 48.0737 56.0913 47.2882C56.2068 47.1265 55.0286 44.539 55.1672 42.0555C55.1903 41.709 55.8949 46.3295 57.0616 46.6529C58.0088 46.9186 58.7943 45.7981 59.2448 45.1628C59.7184 44.4928 60.0302 43.7305 59.6721 42.9681H59.6606Z" fill="black"/>
<path d="M47.4411 12.9923C48.0664 13.1366 49.5672 13.9928 50.5677 16.2632C50.7441 15.1729 50.3657 12.9923 47.4411 12.9923Z" fill="#FFDD2A"/>
</svg>
