<svg width="85" height="85" viewBox="0 0 85 85" fill="none" xmlns="http://www.w3.org/2000/svg">
<path d="M55.1936 29.5138C55.2629 31.027 54.4721 32.6904 53.4902 33.7531C52.1619 35.1854 50.7448 35.7955 50.7448 35.7955C50.6409 37.7361 51.1287 44.0774 51.7293 47.6467C51.7293 47.6467 63.0776 47.6723 63.1238 46.7135C63.4241 40.9033 58.6535 41.0765 58.0991 37.9577C57.6255 35.3009 58.5842 34.9659 57.9951 32.4824C57.51 30.4494 55.1936 29.5138 55.1936 29.5138Z" fill="black"/>
<path d="M54.0674 27.2035C53.9288 27.0995 53.7786 27.0186 53.6285 26.9609C53.0394 26.7068 52.4271 26.7645 52.1268 26.8454C48.5459 27.9081 48.3611 33.9263 48.3611 33.9263C47.7027 34.8388 46.9172 31.824 46.6978 30.8999C46.2473 29.0286 45.4967 26.8454 43.7164 25.3688C37.652 24.2368 36.6578 17.9229 36.6578 17.9229C34.2667 18.7399 31.1552 21.958 30.3448 22.8275C30.2793 22.8977 30.1636 22.8435 30.1741 22.7481C30.2832 21.7643 30.5506 20.292 30.7802 19.4988C34.0261 8.79086 44.5608 6.90801 52.2654 14.2315C53.305 15.2249 53.4437 16.5071 53.4437 16.5071C55.1763 17.616 55.2572 20.3998 55.0146 23.1606C54.8182 25.39 54.0443 27.215 54.0443 27.215L54.0674 27.2035Z" fill="black"/>
</svg>
