<svg width="85" height="85" viewBox="0 0 85 85" fill="none" xmlns="http://www.w3.org/2000/svg">
<path d="M53.9591 20.4755C53.7512 18.8814 53.2083 17.0563 51.9492 15.5893C47.2248 10.0678 29.5951 11.419 30.1712 24.2093C30.1712 24.2093 31.7127 19.1398 34.0565 20.0827C35.5928 20.9606 36.101 21.4689 37.0944 21.4227C39.6819 21.2956 40.0113 20.01 42.8991 19.8368C44.4931 19.7444 47.3463 20.4028 48.1549 24.8731C48.5058 26.8134 47.1583 29.5894 47.8513 31.2412C48.0939 31.8303 49.1076 31.5877 49.2925 31.2412C49.2925 31.2412 49.3128 28.6753 50.7155 27.4898C51.3561 26.9484 52.3989 26.6615 53.2568 26.854C54.0422 24.2665 54.1463 21.9103 53.9591 20.4755Z" fill="black"/>
</svg>
