<svg width="85" height="85" viewBox="0 0 85 85" fill="none" xmlns="http://www.w3.org/2000/svg">
<path d="M54.0659 27.2438C54.0683 27.2438 54.0691 27.2407 54.0671 27.2393C52.647 26.278 50.7464 27.7179 50.3774 28.0409C49.3146 28.9881 48.5869 29.7966 48.1018 30.4088C47.619 31.0181 46.916 30.7818 46.3656 30.255C46.3603 30.2498 46.3541 30.2451 46.3477 30.2412C38.4052 25.432 37.4082 19.3657 37.2926 18.3037C37.2845 18.2292 37.1998 18.1872 37.1354 18.2255C32.3397 21.0804 30.7044 25.3502 29.6615 26.0103C29.6035 26.047 29.5366 26.0002 29.5361 25.9316C29.5092 22.1558 30.6885 19.3395 31.1677 18.1415C32.5769 15.5193 34.841 12.7933 37.2783 11.4764C39.1034 10.4946 43.9664 8.8543 49.0028 12.0424C52.7887 14.4412 53.2881 16.1526 53.3494 16.4623C53.3557 16.4941 53.3741 16.5223 53.4016 16.5393C54.3227 17.1115 54.885 18.5176 55.0556 21.1101C55.2722 24.36 54.0931 27.1709 54.0628 27.2424C54.0621 27.244 54.0641 27.2438 54.0659 27.2438Z" fill="black"/>
<path d="M58.3131 37.6052C57.8511 35.9303 56.1646 33.9781 54.0738 33.1927C52.6877 34.9715 50.7471 35.8494 50.7471 35.8494C50.7471 35.8494 50.6316 38.5871 51.2438 43.9815C52.295 44.7554 54.2125 45.1597 55.7257 44.5359C58.29 43.4848 59.2026 40.8049 58.3131 37.5937V37.6052Z" fill="black"/>
</svg>
