<svg width="85" height="85" viewBox="0 0 85 85" fill="none" xmlns="http://www.w3.org/2000/svg">
<path d="M51.0071 16.122C51.0071 16.122 50.4641 14.5048 48.2117 13.7078C42.6209 11.7441 37.5614 12.6566 34.9971 13.5114C33.8189 13.9041 32.0862 15.7523 31.7858 17.716C31.2314 18.2705 29.6258 20.2111 30.2611 23.6187C30.6192 22.5791 30.8744 21.3654 31.9255 19.3324C32.1841 19.9415 32.5251 20.6269 33.3337 21.2045C37.007 23.8613 43.9146 23.5378 47.7034 22.6368C47.7034 22.6368 46.2853 27.4883 47.3504 30.7937C47.5238 31.7598 48.5351 31.8894 48.743 31.4735C48.743 31.4735 48.9856 28.759 50.9609 27.4883C51.7579 26.9801 52.578 26.7837 53.2595 26.8299L53.7216 25.3167C55.9856 17.9124 53.352 15.6368 51.0071 16.1335V16.122Z" fill="black"/>
</svg>
