<svg width="85" height="85" viewBox="0 0 85 85" fill="none" xmlns="http://www.w3.org/2000/svg">
<path d="M54.4939 18.7665C54.4939 18.7665 54.4823 18.6856 54.4708 18.651C54.4708 18.6163 54.4477 18.5817 54.4361 18.547C54.4015 18.4084 54.3668 18.2698 54.3206 18.1427C54.2744 18.0041 54.2282 17.877 54.1704 17.75C54.1704 17.7269 54.1589 17.7153 54.1473 17.6922C52.8883 14.8853 49.6655 15.7632 49.6655 15.7632C49.6655 15.7632 48.8684 13.3836 45.5186 12.5866C41.776 11.6971 39.974 13.1411 39.974 13.1411C39.974 13.1411 36.809 11.5932 33.8057 14.3539C32.6967 15.3704 31.7034 16.8028 31.507 18.1196C30.8255 19.0899 29.9938 20.8919 30.3403 23.5834C30.6637 22.6246 30.8717 21.4579 31.7265 19.679C31.8651 19.9447 32.0499 20.1873 32.304 20.4068C33.875 21.7467 36.5318 21.7929 37.8255 21.0305C37.8255 21.0305 38.3222 22.8094 40.875 23.0173C43.139 23.2021 43.8783 22.047 43.8783 22.047C43.8783 22.047 44.6061 24.2418 47.5747 24.08C47.3668 25.9744 46.1509 28.469 47.2476 30.7162C47.7578 31.7615 48.6027 31.8656 48.8107 31.4497C48.8107 31.4497 48.8263 28.6283 50.8016 27.3577C51.5986 26.8495 52.6457 26.7599 53.3272 26.8061L53.7893 25.2929C54.6787 22.3705 54.8058 20.2566 54.4939 18.7781V18.7665Z" fill="black"/>
</svg>
