<svg width="85" height="85" viewBox="0 0 85 85" fill="none" xmlns="http://www.w3.org/2000/svg">
<path d="M53.7499 22.5659C53.2878 20.221 52.5832 18.9735 51.9248 18.3035C52.3522 18.0378 52.7565 17.6913 53.0915 17.2524C54.4661 15.4273 54.339 10.9107 49.5799 10.8876C47.6393 10.8876 46.5766 12.0659 45.999 13.2903C42.4181 11.0956 39.2647 11.1071 37.428 11.6154C34.3825 12.4581 32.3975 15.906 30.9131 19.1555C30.4857 20.0912 29.3075 21.2144 28.9379 22.254C28.2333 24.2408 28.4527 24.6451 28.6491 26.2969C28.8455 27.9488 26.8125 29.0923 27.5633 30.9636C28.3141 32.8349 28.4759 32.7079 28.4759 32.7079C28.4759 32.7079 28.0369 30.5131 28.8109 29.3349C29.5848 28.1567 30.4857 27.891 30.0815 25.7078C29.862 24.495 30.3125 23.6286 30.9131 22.9009C32.5419 21.3184 35.6029 18.6038 37.532 18.5692C37.8092 18.5692 40.8601 23.8719 43.7096 26.99C45.3439 28.7783 46.077 29.2063 46.7338 30.5986C46.7338 30.8871 46.6047 31.1492 46.334 31.5296C45.0518 33.3316 45.7565 33.9438 45.9528 35.3531C46.1492 36.7623 44.8208 38.5528 44.8208 38.5528C44.8208 38.5528 44.9132 38.7376 46.3802 37.363C47.8588 35.9884 46.5073 34.0825 47.3736 32.6732C48.0782 31.5297 49.5453 30.0511 50.1806 28.4108C50.5156 28.0412 50.9083 27.6715 51.3703 27.3827C51.636 27.2095 51.9017 27.0824 52.1674 26.99C52.5717 26.8514 53.334 26.8283 53.8885 27.1979C53.8885 27.1979 54.1773 24.7144 53.7499 22.5544V22.5659Z" fill="black"/>
</svg>
