<svg width="85" height="85" viewBox="0 0 85 85" fill="none" xmlns="http://www.w3.org/2000/svg">
<g clip-path="url(#clip0_67_6166)">
<path d="M29.3367 27.9277C29.3367 27.9277 36.8219 14.5746 43.9721 31.3007C43.9721 31.3007 43.8219 24.5894 40.472 20.4541C39.3285 19.0333 37.0991 17.2776 34.0496 19.4607C32.34 20.6852 30.5149 23.7809 29.3482 27.9393L29.3367 27.9277Z" fill="white"/>
<path d="M55.1698 46.7564C55.1698 45.0617 55.5188 44.1072 55.7366 38.7514C56.3141 24.5434 54.5232 15.1973 43.0941 13.1193C40.5529 12.6572 37.642 12.6688 34.7311 14.4939C30.1914 17.347 29.3482 25.2134 29.3482 27.9279C29.3482 27.9279 31.3004 20.616 34.8812 19.0681C36.637 18.3058 38.5314 18.456 40.0908 20.616C42.9555 24.5896 44.2377 28.182 44.6073 38.7514C44.6535 40.0798 41.6387 44.8158 36.7063 46.7564L36.3433 47.3372C33.94 51.7008 26.5187 62.8936 18.7557 66.6511C18.7557 66.6511 25.7673 83.5585 42.9902 83.6394C59.4737 83.7202 66.7626 70.6395 69.9622 66.227C69.9622 66.227 55.1698 56.6484 55.1698 46.7564Z" fill="black"/>
<path d="M41.1148 78.4053C33.364 78.4053 27.0223 71.8788 25.024 67.0389C24.9316 66.8194 25.0355 66.5653 25.255 66.4729C25.4745 66.3805 25.7286 66.4844 25.821 66.7039C27.8887 71.6825 34.7385 78.5323 42.8821 77.4118C55.6462 75.6561 59.5274 63.5042 59.5621 63.3771C59.6314 63.1461 59.874 63.0191 60.105 63.0884C60.336 63.1577 60.4631 63.4002 60.3938 63.6313C60.3591 63.7583 56.3277 76.4415 43.0092 78.2666C42.3739 78.359 41.7501 78.3937 41.1264 78.3937L41.1148 78.4053Z" fill="#4B4B4B"/>
<path d="M41.7309 67.5758C41.073 67.5484 40.4296 67.4522 39.7775 67.2863C37.0432 66.5943 34.8326 64.7102 33.704 62.1081C33.6093 61.8845 33.7122 61.6344 33.9243 61.5392C34.1479 61.4445 34.398 61.5474 34.4932 61.7595C35.5049 64.1139 37.5035 65.8158 39.9862 66.4395C42.6749 67.1181 45.5226 66.4737 47.817 64.6849C52.7061 60.8306 53.5925 52.3238 54.3053 45.4862C54.4178 44.4503 54.5174 43.4487 54.6256 42.5167C54.6588 42.2753 54.8732 42.1224 55.1036 42.1436C55.345 42.1767 55.5094 42.3917 55.4767 42.6216C55.3685 43.5535 55.2579 44.5432 55.1574 45.5679C54.4264 52.5667 53.5198 61.2808 48.344 65.3543C46.3954 66.8916 44.0511 67.661 41.7198 67.5638L41.7309 67.5758Z" fill="#4B4B4B"/>
<path d="M44.9036 40.5519C44.8227 40.5519 44.7419 40.5288 44.6726 40.4826C44.4762 40.3556 44.4069 40.0899 44.5455 39.882C49.9399 31.4265 46.9597 24.9232 46.9366 24.8654C46.8326 24.6459 46.9251 24.3918 47.1445 24.2878C47.364 24.1839 47.6181 24.2878 47.7221 24.4958C47.8607 24.773 50.9564 31.4727 45.2848 40.3556C45.2039 40.4826 45.0653 40.5519 44.9151 40.5519H44.9036Z" fill="#4B4B4B"/>
</g>
<defs>
<clipPath id="clip0_67_6166">
<rect width="84.38" height="84.38" fill="white"/>
</clipPath>
</defs>
</svg>
