<svg width="85" height="85" viewBox="0 0 85 85" fill="none" xmlns="http://www.w3.org/2000/svg">
<path d="M58.0139 38.6375C65.4182 51.9676 73.2268 55.1179 72.6608 67.2467C64.7787 65.5136 54.0911 63.3686 54.0911 63.3686C54.0911 63.3686 50.367 45.753 50.7713 36.1309C50.7713 36.1309 52.7235 34.9411 53.971 33.4279C54.2829 33.0467 54.6063 32.6193 54.8373 32.1573C54.8373 32.1573 56.0849 35.1375 58.0255 38.6375H58.0139Z" fill="black"/>
<path d="M55.0453 24.52C55.3918 21.8401 54.5948 18.2476 53.1278 17.2773C53.1278 17.2773 52.839 15.7757 50.24 13.7196C45.2498 9.76907 40.2713 11.4902 37.9033 12.4259C29.8445 15.0266 29.3716 25.1488 29.3541 27.035C29.3532 27.1315 29.4734 27.1678 29.528 27.0883C31.3217 24.4779 34.207 20.015 38.4462 19.3104C38.4462 19.3104 38.4462 23.8284 40.3525 27.1421C43.1302 31.9705 46.1774 33.703 47.098 31.9705C48.565 29.2097 49.8588 27.8467 51.7878 27.1421C52.8621 26.7493 53.5321 26.9688 54.1789 27.4539C54.1789 27.4539 54.872 25.9061 55.0568 24.4968L55.0453 24.52Z" fill="black"/>
</svg>
