<svg width="85" height="85" viewBox="0 0 85 85" fill="none" xmlns="http://www.w3.org/2000/svg">
<path d="M53.8796 23.9969C54.4456 22.7263 54.203 21.8022 53.6139 21.2131C54.8037 19.0645 52.505 18.4523 52.505 18.4523C53.5793 16.4077 51.2344 15.8533 51.2344 15.8533C51.7426 13.185 48.6585 13.5662 48.6585 13.5662C47.7459 11.1635 44.835 12.3071 44.835 12.3071C42.6749 9.66187 40.1106 12.3764 40.1106 12.3764C37.4769 11.0827 36.3102 13.8318 36.3102 13.8318C33.6072 13.6124 33.2607 16.2114 33.2607 16.2114C33.2607 16.2114 32.0363 16.5233 31.4125 17.7015C31.1468 18.2097 31.0775 18.7758 31.066 19.2263C30.0841 20.1966 28.8481 21.9985 30.1765 24.2395C30.396 23.5926 30.5152 22.8938 31.066 22.0008C31.4934 23.0404 32.8795 22.7378 32.8795 22.7378C34.5544 25.0596 37.0611 23.1075 37.0611 23.1075C39.4291 24.6784 41.0347 22.657 41.0347 22.657C43.4604 24.0893 44.9505 22.2758 44.9505 22.2758C44.3152 24.9903 47.1568 25.2675 47.1568 25.2675C46.637 26.5613 46.6066 27.4623 47.684 28.3774C47.7187 29.1513 47.8111 29.8559 48.0306 30.3642C48.4114 31.246 49.1436 31.124 49.3284 30.7775C49.3284 30.7775 49.5364 28.5134 51.1766 27.4623C51.8351 27.0349 52.6321 26.7461 53.6717 27.0695C53.6717 27.0695 54.0991 26.827 54.2724 26.1685C54.6651 24.6669 53.8911 23.9853 53.8911 23.9853L53.8796 23.9969Z" fill="black"/>
</svg>
