<svg width="85" height="77" viewBox="0 0 85 77" fill="none" xmlns="http://www.w3.org/2000/svg">
<path d="M30.4119 16.8684C30.4119 16.8684 31.4741 10.883 32.5411 9.83081C33.7174 8.66641 44.5741 6.04999 54.9129 12.3617C55.7474 12.8769 56.1608 13.8833 56.2055 14.865C56.273 16.2432 55.7515 17.5107 55.6697 20.7019C55.6697 20.7019 56.1994 24.2007 58.6097 26.0008C61.02 27.8008 48.8493 29.2912 39.7202 27.5875C30.3088 25.8382 26.4866 22.6349 26.3428 21.9528C25.8437 19.6035 29.0901 20.4662 30.4228 16.8671L30.4119 16.8684Z" fill="#19ECC9"/>
<g opacity="0.3">
<path d="M54.0595 21.4609C41.6356 22.8691 30.7536 17.9272 30.6489 17.8836C30.4382 17.7855 30.3549 17.54 30.4421 17.3305C30.5401 17.1198 30.7857 17.0366 30.9842 17.1249C31.0902 17.1795 41.7711 22.0111 53.9542 20.6302C54.2936 20.5918 54.6329 20.5533 54.971 20.5039L54.9819 20.5026C55.2009 20.4778 55.4068 20.6319 55.4426 20.8496C55.4686 21.0794 55.3146 21.2854 55.0969 21.3211C54.7466 21.3608 54.4085 21.4102 54.0582 21.4499L54.0595 21.4609Z" fill="black"/>
</g>
<g opacity="0.3">
<path d="M53.8078 23.7402C39.6982 25.3394 29.416 19.8195 29.3088 19.7541C29.1078 19.6438 29.0355 19.397 29.1457 19.196C29.256 18.9951 29.5028 18.9228 29.7038 19.033C29.811 19.0985 40.8471 25.0096 55.6801 22.6521C55.9538 22.6211 56.1147 22.7691 56.1517 22.9978C56.1778 23.2276 56.0347 23.4323 55.806 23.4693C55.1311 23.5791 54.4646 23.6657 53.7969 23.7414L53.8078 23.7402Z" fill="black"/>
</g>
<path opacity="0.15" d="M55.5669 13.241C55.5873 13.1278 55.5384 12.9892 55.4541 12.8325C55.3004 12.6504 55.1163 12.4938 54.9141 12.3726C44.6351 6.09846 33.8999 8.71218 32.5727 9.81608C32.4963 9.92452 32.4405 10.0195 32.4286 10.1096C32.2718 11.2693 37.3253 12.9139 43.7092 13.7757C50.0931 14.6375 55.4101 14.4007 55.5657 13.2301L55.5669 13.241Z" fill="black"/>
<g opacity="0.3">
<path d="M33.3629 17.864C33.3629 17.864 33.3192 17.869 33.2863 17.8727C33.0624 17.8538 32.8856 17.6632 32.9033 17.4283C33.1138 14.1006 34.0266 12.0791 34.0617 11.9975C34.1597 11.7869 34.4053 11.7036 34.6038 11.792C34.8145 11.89 34.8977 12.1356 34.8094 12.3341C34.8119 12.356 33.9257 14.319 33.7185 17.48C33.708 17.6808 33.549 17.8429 33.352 17.8653L33.3629 17.864Z" fill="black"/>
</g>
<g opacity="0.3">
<path d="M53.1077 20.6929C53.1077 20.6929 53.031 20.7016 52.9848 20.6846C52.7584 20.6438 52.6119 20.4276 52.6528 20.2012C53.3622 16.3845 53.3873 14.5524 53.3861 14.5414C53.3819 14.3091 53.5713 14.1213 53.8049 14.1281C54.0372 14.1239 54.214 14.3145 54.2182 14.5469C54.2269 14.6235 54.2005 16.4447 53.4792 20.3514C53.4443 20.5328 53.2938 20.6718 53.1186 20.6916L53.1077 20.6929Z" fill="black"/>
</g>
</svg>
