<svg width="85" height="77" viewBox="0 0 85 77" fill="none" xmlns="http://www.w3.org/2000/svg">
<path d="M30.4003 19.3486C30.4003 19.3486 34.1433 11.4148 39.8841 8.71658C45.7053 5.98395 49.2531 6.81063 51.4461 7.88991C53.2947 8.79696 55.7173 13.0337 56.3717 16.9145C56.8195 19.5897 56.854 24.9516 55.9125 26.5246C55.0858 27.9024 30.4003 19.3486 30.4003 19.3486Z" fill="#FF0E0E"/>
<g opacity="0.31">
<path d="M36.0837 20.1062C36.0837 20.1062 35.9918 20.1062 35.9459 20.0832C35.7163 20.0144 35.6014 19.7618 35.6703 19.5436C38.6556 10.3927 45.246 7.82085 48.9202 7.10899C49.1613 7.06306 49.3794 7.21232 49.4253 7.45344C49.4713 7.69455 49.322 7.9127 49.0809 7.95863C44.8327 8.78531 39.1952 11.5179 36.4855 19.8192C36.4281 20.0029 36.2559 20.1177 36.0722 20.1177L36.0837 20.1062Z" fill="black"/>
</g>
<g opacity="0.31">
<path d="M51.1935 24.5955C51.1935 24.5955 51.0902 24.5955 51.0328 24.561C50.8146 24.4807 50.6998 24.2281 50.7917 23.9984C53.0421 18.2117 52.9158 13.2057 52.4221 10.0253C52.3876 9.79564 52.5484 9.56601 52.778 9.53157C53.0191 9.49712 53.2373 9.65786 53.2717 9.8875C53.7884 13.1712 53.9032 18.338 51.5954 24.297C51.5265 24.4692 51.3658 24.5725 51.1935 24.5725V24.5955Z" fill="black"/>
</g>
<g opacity="0.31">
<path d="M44.7179 21.3807C44.7179 21.3807 44.672 21.3807 44.649 21.3807C44.4079 21.3462 44.2586 21.1281 44.2931 20.8869C45.292 14.5261 48.6676 10.1516 50.585 8.10787C50.7458 7.93565 51.0213 7.92416 51.1935 8.08491C51.3658 8.24565 51.3772 8.52121 51.2165 8.69343C49.3565 10.6683 46.1072 14.882 45.1427 21.0132C45.1083 21.2314 44.9246 21.3807 44.7179 21.3807Z" fill="black"/>
</g>
<path d="M29.8607 23.0799C32.7655 23.2292 42.146 24.1822 54.7529 30.1526C55.2351 30.3823 55.9584 30.2445 56.1766 29.7508C56.544 28.8896 57.0033 27.5233 56.5784 26.0077C56.5096 25.7666 56.2225 25.537 56.0158 25.4107C54.018 24.2166 43.6616 18.1658 30.6988 18.7054C30.3544 18.7169 29.8951 19.0269 29.6999 19.3254C29.0569 20.2554 28.9766 20.9443 29.0569 22.0581C29.0914 22.5403 29.3899 23.057 29.8607 23.0799Z" fill="#DF0505"/>
<g opacity="0.34">
<path d="M31.2614 23.0572C31.0203 23.0572 30.8366 22.8505 30.8366 22.6209C30.894 19.7619 32.0996 18.7975 32.157 18.763C32.3522 18.6138 32.6162 18.6482 32.7655 18.8434C32.9033 19.0271 32.8803 19.3027 32.6966 19.4404C32.6736 19.4634 31.7551 20.2671 31.7092 22.6438C31.7092 22.8735 31.514 23.0686 31.2729 23.0686L31.2614 23.0572Z" fill="black"/>
</g>
<g opacity="0.34">
<path d="M53.0421 29.108C53.0421 29.108 52.9388 29.108 52.8928 29.0851C52.6747 29.0047 52.5599 28.7521 52.6517 28.5339C53.5473 26.2146 53.2029 24.8483 53.1914 24.8368C53.134 24.6072 53.2603 24.3661 53.4899 24.3087C53.7195 24.2398 53.9492 24.3776 54.018 24.6072C54.041 24.6761 54.4544 26.2261 53.444 28.8439C53.3751 29.0162 53.2143 29.1195 53.0421 29.1195V29.108Z" fill="black"/>
</g>
<g opacity="0.34">
<path d="M41.6638 24.8943C41.6638 24.8943 41.6408 24.8943 41.6293 24.8943C41.3882 24.8714 41.216 24.6647 41.239 24.4351C41.4686 21.668 42.3527 20.3017 42.3871 20.2443C42.5134 20.0491 42.789 19.9917 42.9842 20.118C43.1794 20.2443 43.2368 20.5198 43.1105 20.715C43.1105 20.7265 42.3068 21.978 42.1001 24.4925C42.0771 24.7221 41.8934 24.8828 41.6753 24.8828L41.6638 24.8943Z" fill="black"/>
</g>
</svg>
