<svg width="85" height="77" viewBox="0 0 85 77" fill="none" xmlns="http://www.w3.org/2000/svg">
<path d="M31.3598 19.7535C31.3598 19.7535 30.904 21.121 30.1723 24.2997C30.1723 24.2997 25.6381 23.8559 25.83 21.6488C26.0219 19.4416 28.6729 18.2781 31.3598 19.7535Z" fill="black"/>
<path d="M53.1442 23.1361C49.6175 22.8602 46.4988 21.4327 41.2688 17.5942C34.6354 12.7241 33.3279 14.1996 33.3279 14.1996C33.3279 14.1996 32.5962 14.9913 32.1044 15.9389C31.7205 16.6946 31.3727 17.6182 31.2407 18.0021C26.2027 18.3979 25.9028 21.2528 25.9028 21.2528C26.7545 18.6018 32.6562 19.7294 36.9145 23.4C41.6287 27.4664 47.2784 27.1185 49.0538 26.8906C50.889 26.7107 51.1169 26.7227 51.8487 26.5187L53.1561 23.1241L53.1442 23.1361Z" fill="#19ECC9"/>
<path d="M36.8897 23.3999C41.6038 27.4663 47.2536 27.1184 49.0289 26.8905C51.416 26.7226 51.8238 26.5187 51.8238 26.5187C52.1717 25.8829 52.6395 24.4315 53.1313 23.124C53.1313 23.124 51.9078 23.004 51.5 22.9081C50.9482 22.7881 50.3004 22.6202 50.3004 22.6202C49.0409 24.2635 45.7062 25.8709 36.8657 23.3879L36.8897 23.3999Z" fill="#21BFA0"/>
</svg>
