<svg width="85" height="77" viewBox="0 0 85 77" fill="none" xmlns="http://www.w3.org/2000/svg">
<path d="M58.3099 36.2135C58.2757 35.4143 56.1636 29.763 51.5055 25.2876C51.9051 27.4797 51.6197 29.2036 51.6197 29.2036C51.6197 29.2036 52.533 28.4501 53.5606 29.3406C54.8392 30.4366 54.668 32.2975 53.5948 33.4849C52.0878 35.1517 50.7749 35.8938 50.7749 35.8938C56.1636 37.2639 58.367 37.3552 58.3099 36.2249V36.2135Z" fill="black"/>
<path d="M33.4213 13.7684C33.4213 13.7684 24.9615 10.5488 21.1026 15.3553C17.2551 20.1503 22.0958 24.1691 26.4685 25.0596C30.8411 25.9501 33.4099 13.7684 33.4099 13.7684H33.4213Z" fill="#40A0FF"/>
<path d="M29.1514 20.6524C29.1514 20.6524 36.1042 7.64868 40.1458 7.85419C44.1873 8.05969 45.1509 9.72002 50.3341 10.6676C55.5173 11.6038 56.3919 14.1677 54.314 26.4407C54.314 26.4407 38.0337 24.9109 29.1514 20.6524Z" fill="#5AD8FF"/>
<path d="M54.3141 26.4408C54.531 25.1735 54.7022 24.0319 54.8506 22.9815L54.8278 22.5933C40.6596 16.4739 31.4919 16.6794 31.4804 16.6794C30.0876 18.8943 29.14 20.6639 29.14 20.6639C38.0223 24.9224 54.3026 26.4522 54.3026 26.4522L54.3141 26.4408Z" fill="black"/>
<path d="M21.2396 22.3421C21.2396 22.3421 25.3953 22.7988 30.5443 19.6934C35.6933 16.5881 42.943 14.122 51.8252 17.6955C60.7189 21.269 62.2945 31.5441 58.1273 36.7045C58.1273 36.7045 56.0152 29.843 44.5642 27.0915C33.1131 24.3401 26.9823 27.434 21.2396 22.3307V22.3421Z" fill="#3CD1FF"/>
</svg>
