<svg width="85" height="77" viewBox="0 0 85 77" fill="none" xmlns="http://www.w3.org/2000/svg">
<path d="M55.5899 21.536L57.3034 13.7336L32.9822 8.41013L31.063 16.224C26.802 16.1669 23.946 16.8294 23.649 18.2117C23.1007 20.7249 31.1887 24.6204 41.7214 26.928C52.2541 29.2356 61.2332 29.0757 61.7815 26.5625C62.09 25.1459 59.6567 23.2953 55.5784 21.5246L55.5899 21.536Z" fill="#FFDD2A"/>
<g opacity="0.1">
<path d="M59.4625 26.1053C59.6796 25.9339 59.8166 25.7397 59.8852 25.5113C60.0108 25.0315 59.5425 24.3803 58.4915 23.5921C58.3087 23.455 58.0345 23.4892 57.886 23.672C57.7489 23.8662 57.7832 24.129 57.966 24.2775C58.72 24.8487 59.017 25.2714 59.0513 25.3056C59.0513 25.3399 59.0056 25.3856 58.9599 25.4199C57.509 23.7406 54.9387 22.781 54.7902 22.7239C54.5731 22.6439 54.3218 22.7581 54.2418 22.9752C54.1619 23.1922 54.2761 23.4436 54.4932 23.5235C55.3271 23.8205 57.0292 24.643 58.1031 25.7512C56.8236 26.0253 54.596 25.9796 51.9 25.6826C50.9975 23.752 49.2839 22.484 49.1811 22.404C48.9869 22.2669 48.7242 22.3012 48.5871 22.4954C48.45 22.6896 48.4843 22.9523 48.6785 23.0894C48.7013 23.1008 50.0036 24.0833 50.8604 25.5569C49.2154 25.3513 47.4333 25.0657 45.6055 24.723C45.4341 23.2836 45.0115 22.1184 44.9886 22.0384C44.9086 21.8214 44.6573 21.7071 44.4403 21.7871C44.2232 21.8671 44.109 22.1184 44.1889 22.3354C44.1889 22.3469 44.5431 23.3179 44.7259 24.5402C42.8638 24.1747 40.9789 23.752 39.1739 23.295C39.7108 22.2669 40.3277 21.5358 40.3391 21.5244C40.4876 21.3416 40.4762 21.0788 40.2934 20.9189C40.1107 20.7704 39.8479 20.7818 39.688 20.9646C39.6423 21.0217 38.9226 21.8785 38.3286 23.0666C36.535 22.5868 34.8443 22.0841 33.3592 21.5586C34.4445 20.6219 35.6097 20.085 35.6211 20.085C35.8382 19.9936 35.9296 19.7308 35.8382 19.5138C35.7468 19.2967 35.4955 19.2053 35.267 19.2967C35.1756 19.331 33.6905 20.005 32.4339 21.2273C31.223 20.7704 30.1948 20.302 29.4066 19.8565C28.9725 19.6052 28.6641 19.3881 28.4127 19.2053C29.6465 18.5199 31.1202 18.3486 31.143 18.3371C31.3829 18.3143 31.5428 18.0972 31.52 17.8688C31.4971 17.6289 31.3029 17.4689 31.0516 17.4918C30.9374 17.5032 29.201 17.7202 27.773 18.5885C27.6816 18.4628 27.6473 18.3714 27.6473 18.3257C27.6473 18.28 27.6473 18.2343 27.7045 18.1658C27.8644 17.9944 27.853 17.7202 27.6816 17.5603C27.5103 17.4004 27.2361 17.4118 27.0762 17.5832C26.8477 17.8345 26.7449 18.1315 26.7906 18.4514C26.8248 18.657 26.9162 18.874 27.0762 19.0911C26.5849 19.5252 26.1965 20.0621 26.0137 20.7475C25.9566 20.976 26.0937 21.2159 26.3222 21.273C26.3565 21.273 26.3907 21.2845 26.4364 21.2845C26.6306 21.2845 26.802 21.1588 26.8477 20.9646C26.9848 20.4505 27.2932 20.0393 27.6816 19.708C28.0129 19.9822 28.447 20.2792 28.9839 20.5876C29.7379 21.0217 30.7203 21.4672 31.8284 21.9013C31.5314 22.2783 31.2687 22.6782 31.0745 23.1351C30.9831 23.3522 31.0745 23.6035 31.2915 23.6949C31.3486 23.7177 31.4058 23.7291 31.4629 23.7291C31.6228 23.7291 31.7827 23.6378 31.8513 23.4778C32.0569 23.0209 32.3425 22.6096 32.6738 22.2326C34.2388 22.8038 36.0438 23.3522 37.963 23.8662C37.7916 24.3232 37.6431 24.8144 37.5632 25.3056C37.5289 25.5455 37.6888 25.7626 37.9287 25.7968C37.9516 25.7968 37.9744 25.7968 37.9858 25.7968C38.1915 25.7968 38.3742 25.6483 38.4085 25.4313C38.4771 24.9629 38.6141 24.506 38.7969 24.0833C40.7504 24.5859 42.7838 25.0429 44.8058 25.4199C44.8287 25.9454 44.8058 26.4823 44.7144 26.9963C44.6687 27.2248 44.8172 27.4533 45.0457 27.499C45.0686 27.499 45.1028 27.499 45.1257 27.499C45.3313 27.499 45.5027 27.3619 45.5484 27.1563C45.6512 26.6308 45.674 26.1053 45.6626 25.5798C47.6161 25.9339 49.5353 26.2309 51.2831 26.4252C51.4544 26.8821 51.5687 27.3619 51.5801 27.876C51.5801 28.1044 51.7743 28.2872 52.0142 28.2872H52.0256C52.2655 28.2872 52.4483 28.0816 52.4369 27.8417C52.4255 27.3733 52.3341 26.9392 52.2084 26.5165C53.5679 26.6536 54.813 26.7336 55.8754 26.7336C57.0521 26.7336 58.0003 26.6422 58.6628 26.4366C58.9027 26.8136 59.0398 27.2134 59.0513 27.6361C59.0513 27.876 59.2455 28.0588 59.4854 28.0588C59.7253 28.0588 59.908 27.8645 59.908 27.6246C59.908 27.0649 59.7253 26.5394 59.4397 26.071L59.4625 26.1053Z" fill="black"/>
<path d="M32.4453 12.6483C32.4453 12.6483 33.1536 13.0139 34.3531 13.5279L33.2678 17.9261C33.2107 18.1546 33.3478 18.383 33.5763 18.4402C33.6105 18.4402 33.6448 18.4516 33.6791 18.4516C33.8733 18.4516 34.0446 18.3259 34.0903 18.1203L35.1413 13.8478C36.1123 14.2362 37.3118 14.6932 38.7055 15.1501L37.9287 19.1713C37.883 19.3997 38.0315 19.6282 38.2714 19.6739C38.2943 19.6739 38.3286 19.6739 38.3514 19.6739C38.557 19.6739 38.7284 19.5368 38.7741 19.3312L39.528 15.4014C40.6476 15.7556 41.8699 16.0869 43.1722 16.4067L42.2126 20.2337C42.1555 20.4622 42.2926 20.6906 42.5211 20.7592C42.5553 20.7592 42.5896 20.7706 42.6239 20.7706C42.8181 20.7706 42.9894 20.6449 43.0351 20.4507L43.9947 16.6123C45.3656 16.9208 46.8278 17.195 48.3586 17.412L47.2962 21.5017C47.2391 21.7302 47.3762 21.9587 47.6046 22.0272C47.6389 22.0272 47.6732 22.0386 47.7075 22.0386C47.9017 22.0386 48.073 21.913 48.1187 21.7188L49.204 17.5148C50.392 17.6633 51.6144 17.7661 52.871 17.8233L51.9114 22.1986C51.8657 22.427 52.0028 22.6555 52.2427 22.7126C52.277 22.7126 52.2998 22.7126 52.3341 22.7126C52.5283 22.7126 52.7111 22.5756 52.7568 22.3813L53.7506 17.8461C54.1048 17.8461 54.4589 17.869 54.8245 17.869C55.1557 17.869 55.4756 17.869 55.8069 17.869C56.0468 17.869 56.2296 17.6633 56.2296 17.4349C56.2296 17.2064 56.024 17.0122 55.7955 17.0122C55.1786 17.0236 54.5617 17.0122 53.9448 17.0122L54.4589 14.6475C54.5046 14.419 54.3675 14.1905 54.1276 14.1334C53.8877 14.0877 53.6707 14.2248 53.6135 14.4647L53.0652 16.9893C51.82 16.9436 50.6091 16.8408 49.4324 16.6923L50.0493 14.3162C50.1064 14.0877 49.9694 13.8592 49.7409 13.7907C49.5124 13.7336 49.2839 13.8706 49.2154 14.0991L48.5757 16.5781C47.0449 16.3725 45.5826 16.0983 44.2118 15.7898L44.8401 13.2766C44.8972 13.0481 44.7601 12.8197 44.5317 12.7511C44.3032 12.694 44.0747 12.8311 44.0176 13.0596L43.3779 15.5956C42.0527 15.2758 40.8075 14.9331 39.688 14.5789L40.1792 12.0314C40.2249 11.8029 40.0764 11.5745 39.8365 11.5288C39.608 11.4831 39.3795 11.6316 39.3338 11.8715L38.8655 14.3047C37.4718 13.8478 36.2837 13.3908 35.347 13.0024L35.941 10.5806C35.9981 10.3521 35.861 10.1237 35.6325 10.0665C35.3926 10.0094 35.1642 10.1465 35.1185 10.375L34.5473 12.6712C33.4735 12.2142 32.8566 11.8943 32.8337 11.8829C32.6281 11.7801 32.3654 11.8601 32.2511 12.0657C32.1369 12.2713 32.2168 12.5341 32.4339 12.6483H32.4453Z" fill="black"/>
</g>
<path d="M57.2854 13.735C57.5582 12.4901 52.3386 10.2887 45.6272 8.81797C38.9158 7.34727 33.2539 7.16424 32.9811 8.40916C32.7083 9.65407 37.9279 11.8555 44.6393 13.3262C51.3507 14.7969 57.0126 14.9799 57.2854 13.735Z" fill="#EBCA31"/>
<path d="M31.3943 14.8871C31.3943 14.8871 41.1502 20.1992 55.8183 20.4848L55.0529 23.6606C55.0529 23.6606 42.4754 24.3003 30.6518 17.9487L31.4058 14.8871H31.3943Z" fill="#0061FF"/>
</svg>
