<svg width="85" height="77" viewBox="0 0 85 77" fill="none" xmlns="http://www.w3.org/2000/svg">
<path d="M68.6957 25.9659C64.7828 23.2245 56.547 22.4162 56.547 22.4162C58.1168 11.3335 51.9311 7.67833 42.6175 7.01056C34.7448 6.44823 31.0545 15.0121 29.965 18.1752C26.1809 18.3158 22.4203 18.6321 22.4203 18.6321C26.7901 18.6321 30.7733 19.5928 30.7733 19.5928C33.1515 20.1903 38.7866 21.725 43.4375 24.0212C56.5938 30.5349 60.4247 32.3624 65.392 32.749C70.3476 33.1356 72.9835 28.9533 68.6957 25.9542V25.9659Z" fill="#FFDD2A"/>
<path d="M31.3357 19.7447C31.3357 19.7447 23.5567 17.718 17.535 19.1472C11.5134 20.5765 11.2205 26.9379 19.4329 28.2383C25.5014 29.199 29.5784 27.6057 29.5784 27.6057C29.5784 27.6057 30.4453 23.6342 31.3357 19.7447Z" fill="black"/>
<path d="M56.5353 22.4162C56.5353 22.4162 46.6827 23.412 30.1056 17.7769C30.1056 17.7769 30.7265 16.0431 31.4763 14.6607C31.4763 14.6607 43.6016 18.8547 56.7813 18.8196C56.7813 18.8196 56.7813 20.7526 56.547 22.4045L56.5353 22.4162Z" fill="black"/>
</svg>
