<svg width="85" height="85" viewBox="0 0 85 85" fill="none" xmlns="http://www.w3.org/2000/svg">
<path d="M35.0868 37.9161C35.3368 38.8261 36.2168 39.7961 37.2668 39.2561C38.2068 38.7761 37.8868 37.6361 37.7768 37.3461C37.7768 37.3261 37.7468 37.3161 37.7168 37.3361C36.2768 38.2061 34.3968 37.8461 34.3968 37.8461L35.0768 37.9161H35.0868Z" fill="black"/>
<path d="M37.9768 37.9961C37.8968 38.5161 37.6668 39.0261 37.0768 39.1761C36.7468 39.2561 36.4368 39.2361 36.1568 39.1261C36.6868 37.8661 37.9268 37.9861 37.9668 37.9961H37.9768Z" fill="#DD2C52"/>
<path d="M36.6568 39.8161C36.4368 39.8161 36.2168 39.7661 35.9968 39.6761C35.4768 39.4461 35.0168 38.9261 34.7768 38.2961C34.5168 38.2761 34.3468 38.2461 34.3268 38.2361C34.1068 38.1961 33.9668 37.9861 34.0068 37.7661C34.0468 37.5461 34.2568 37.3961 34.4768 37.4461C34.4968 37.4461 36.2268 37.7561 37.5168 36.9861L37.6768 36.8861C37.6768 36.8861 37.8168 36.7961 37.8868 36.8261C37.9568 36.8561 38.0268 36.9361 38.0568 37.0061C38.0768 37.0561 38.1368 37.1561 38.1568 37.2061C38.4868 37.9861 38.4268 39.1161 37.4468 39.6161C37.1868 39.7461 36.9168 39.8161 36.6568 39.8161ZM35.6868 38.3061C35.8568 38.5961 36.0868 38.8161 36.3268 38.9261C36.5768 39.0361 36.8168 39.0261 37.0768 38.8861C37.4968 38.6661 37.5368 38.2361 37.4968 37.8961C36.8768 38.1661 36.2268 38.2761 35.6868 38.3061Z" fill="black"/>
</svg>
