<svg width="85" height="85" viewBox="0 0 85 85" fill="none" xmlns="http://www.w3.org/2000/svg">
<path d="M35.89 39.81C35.82 39.81 35.75 39.81 35.68 39.79C35.49 39.75 35.22 39.62 35.04 39.27C34.9 38.99 34.93 38.73 35.04 38.5C34.92 38.45 34.8 38.39 34.7 38.3C34.55 38.16 34.47 37.98 34.47 37.77C34.47 37.51 34.56 37.28 34.73 37.11C35.03 36.82 35.44 36.82 35.52 36.82C35.74 36.82 35.92 37.01 35.91 37.24C35.91 37.46 35.74 37.61 35.53 37.61C35.45 37.61 35.3 37.62 35.3 37.69C35.31 37.82 35.63 37.8 35.84 37.82C36.07 37.85 36.19 37.89 36.25 38.07C36.31 38.25 36.23 38.4 36.07 38.51C35.82 38.68 35.78 38.82 35.78 38.88C35.78 38.97 35.86 38.99 35.87 38.99C36.05 39.03 36.24 38.88 36.38 38.76C36.56 38.62 36.81 38.65 36.95 38.82C37.09 38.99 37.06 39.25 36.89 39.39C36.8 39.46 36.36 39.8 35.88 39.8L35.89 39.81Z" fill="black"/>
</svg>
