<svg width="85" height="85" viewBox="0 0 85 85" fill="none" xmlns="http://www.w3.org/2000/svg">
<path d="M37.4404 37.8146C37.4404 37.8146 36.8704 37.6846 36.7304 37.1246C36.6804 36.9046 36.4604 36.7746 36.2404 36.8346C36.0204 36.8846 35.8904 37.1146 35.9504 37.3246C35.9904 37.4846 36.0504 37.6146 36.1104 37.7346C35.8704 38.4846 34.9404 38.4646 34.8904 38.4746C34.6404 38.4546 34.4804 38.6346 34.4704 38.8646C34.4604 39.0946 34.6304 39.2746 34.8604 39.2846C34.8804 39.2846 34.9104 39.2846 34.9304 39.2846C35.4304 39.2846 36.2704 39.0746 36.7004 38.3746C36.9904 38.5546 37.2504 38.6146 37.2704 38.6146C37.3004 38.6146 37.3204 38.6146 37.3504 38.6146C37.5404 38.6146 37.7004 38.4846 37.7404 38.2946C37.7904 38.0746 37.6504 37.8646 37.4304 37.8146H37.4404Z" fill="black"/>
</svg>
