<svg width="85" height="85" viewBox="0 0 85 85" fill="none" xmlns="http://www.w3.org/2000/svg">
<path d="M34.86 38.14C34.86 38.14 36.45 38.14 38.6 37.34C38.63 37.33 38.67 37.32 38.68 37.36C38.82 37.76 39.01 38.81 37.99 39.32C36.72 39.96 35.3 39.42 34.97 38.16" fill="#DD2C52"/>
<path d="M38.5 38.22C38.5 38.22 37.55 38.89 35.58 38.81L35.17 38.31L38.77 37.47L38.5 38.22Z" fill="white"/>
<path d="M36.98 39.98C36.53 39.98 36.06 39.87 35.67 39.66C35.19 39.4 34.83 39 34.64 38.51C34.5 38.51 34.41 38.51 34.4 38.51C34.18 38.51 34 38.33 34 38.1C34 37.87 34.18 37.7 34.41 37.7C34.41 37.7 36.58 37.7 38.46 36.97C38.6778 36.884 38.9257 36.9719 39.0407 37.1758L39.06 37.21C39.2 37.61 39.26 38.27 38.98 38.84C38.74 39.32 38.31 39.67 37.7 39.87C37.48 39.94 37.23 39.98 36.98 39.98ZM35.52 38.45C35.65 38.65 35.83 38.82 36.06 38.94C36.55 39.2 37.11 39.21 37.45 39.1C37.84 38.97 38.11 38.77 38.25 38.49C38.35 38.28 38.37 38.06 38.36 37.87C37.33 38.22 36.28 38.38 35.52 38.46V38.45Z" fill="black"/>
</svg>
