<svg width="85" height="85" viewBox="0 0 85 85" fill="none" xmlns="http://www.w3.org/2000/svg">
<g clip-path="url(#clip0_71_3727)">
<path d="M41.11 71.56C40 71.56 34.35 65.81 33.46 63.24C27.86 64.49 15.77 67.23 9.55004 68.92C17.29 78.35 29.0301 84.38 42.1901 84.38C55.3501 84.38 68.12 77.81 75.83 67.66C69.45 66.08 61.24 64.23 56.89 63.26C56.05 63.13 55.27 63.01 54.55 62.9C50.75 65.79 43.32 71.57 41.11 71.57V71.56Z" fill="#47D3FF"/>
<path d="M54.4701 61.5L41.11 71.55L45.73 76.02C46.25 76.49 47.0501 76.43 47.5001 75.89L58.51 63.51L54.48 61.5H54.4701Z" fill="#0C6FFF"/>
<path d="M35.5701 61.88L41.11 71.55L34.21 74.7C33.43 75.29 32.3101 74.78 32.2501 73.81L31.17 63.66L35.5701 61.88Z" fill="#0C6FFF"/>
<path d="M40.2501 76.44C40.725 76.44 41.11 76.0594 41.11 75.59C41.11 75.1205 40.725 74.74 40.2501 74.74C39.7751 74.74 39.39 75.1205 39.39 75.59C39.39 76.0594 39.7751 76.44 40.2501 76.44Z" fill="white"/>
<path d="M39.7801 81.02C40.255 81.02 40.64 80.6394 40.64 80.17C40.64 79.7006 40.255 79.32 39.7801 79.32C39.3051 79.32 38.92 79.7006 38.92 80.17C38.92 80.6394 39.3051 81.02 39.7801 81.02Z" fill="white"/>
</g>
<defs>
<clipPath id="clip0_71_3727">
<rect width="84.38" height="84.38" fill="white"/>
</clipPath>
</defs>
</svg>
