<svg width="85" height="45" viewBox="0 0 85 45" fill="none" xmlns="http://www.w3.org/2000/svg">
<g clip-path="url(#clip0_71_3723)">
<path d="M55.0001 22.8301C54.7301 21.6601 54.55 19.5201 54.49 18.4801C54.46 17.9601 54.0401 17.5501 53.4501 17.9101C50.5801 19.6401 41.33 21.0101 36.18 18.6401C35.82 18.4701 35.3601 18.9201 35.3401 19.5101C35.3201 20.2101 35.34 21.7001 35.17 22.8601C30.83 23.8201 16.52 27.0301 9.55004 28.9201C17.29 38.3501 29.0301 44.3801 42.1901 44.3801C55.3501 44.3801 68.12 37.8101 75.83 27.6601C68.34 25.8101 58.3201 23.5701 55.0001 22.8401V22.8301Z" fill="#FFDD2A"/>
<path d="M51.1901 25.7201C51.1901 25.7201 51.1701 25.7201 51.1601 25.7201C50.9101 25.7001 50.7301 25.4901 50.7401 25.2401C50.7401 25.2201 50.9001 22.9501 50.0601 21.2601C49.9501 21.0401 50.0401 20.7701 50.2601 20.6601C50.4801 20.5501 50.75 20.6401 50.86 20.8601C51.81 22.7801 51.6401 25.2001 51.6301 25.3101C51.6101 25.5501 51.4101 25.7301 51.1801 25.7301L51.1901 25.7201Z" fill="black"/>
<path d="M38.8201 25.9301C38.6101 25.9301 38.4201 25.7801 38.3801 25.5601C38.3601 25.4801 38.0101 23.5001 38.8001 21.5901C38.9001 21.3601 39.1601 21.2501 39.3901 21.3501C39.6201 21.4401 39.7301 21.7101 39.6301 21.9401C38.9401 23.6001 39.2601 25.3801 39.2601 25.4001C39.3001 25.6401 39.1401 25.8801 38.9001 25.9201C38.8701 25.9201 38.8401 25.9201 38.8201 25.9201V25.9301Z" fill="black"/>
<path d="M44.8101 26.2501C44.8101 26.2501 44.7801 26.2501 44.7601 26.2501C44.5101 26.2201 44.3301 26.0001 44.3601 25.7501C44.3601 25.7301 44.5501 23.9401 44.2201 21.9201C44.1801 21.6701 44.3501 21.4401 44.5901 21.4001C44.8301 21.3601 45.0701 21.5301 45.1101 21.7701C45.4601 23.9201 45.2601 25.7601 45.2601 25.8401C45.2301 26.0701 45.0401 26.2401 44.8101 26.2401V26.2501Z" fill="black"/>
</g>
<defs>
<clipPath id="clip0_71_3723">
<rect width="84.38" height="84.38" fill="white" transform="translate(0 -40)"/>
</clipPath>
</defs>
</svg>
