<svg width="85" height="85" viewBox="0 0 85 85" fill="none" xmlns="http://www.w3.org/2000/svg">
<g clip-path="url(#clip0_71_3721)">
<path d="M75.82 67.66C68.17 65.77 57.85 63.47 54.77 62.78C54.77 62.75 54.75 62.71 54.75 62.68C53.13 63.87 45.07 69.46 37.6 68.57C32.3 67.93 34.32 64.15 35.17 62.86C30.83 63.82 16.52 67.03 9.55002 68.92C17.29 78.35 29.03 84.38 42.19 84.38C55.35 84.38 68.12 77.81 75.83 67.66H75.82Z" fill="#19ECC9"/>
<path d="M36.77 70.79C46.41 70.79 57.64 69.63 69.63 66.17C69.25 66.08 68.87 65.99 68.49 65.9C44.9 72.47 24.41 70.17 13.44 67.91C13.02 68.01 12.62 68.12 12.22 68.22C17.86 69.45 26.38 70.78 36.77 70.78V70.79Z" fill="#80FFEA"/>
<path d="M73.72 70.2C49.29 77.28 27.57 76 14.41 73.95C14.68 74.19 14.96 74.41 15.23 74.64C20.76 75.47 27.68 76.14 35.62 76.14C46.53 76.14 59.35 74.86 73.02 70.99C73.26 70.73 73.49 70.47 73.72 70.21V70.2Z" fill="#80FFEA"/>
<path d="M64.38 78.06C48.92 81.7 35.04 81.66 24.63 80.56C25.17 80.81 25.72 81.05 26.27 81.28C29.62 81.59 33.27 81.79 37.21 81.79C44.87 81.79 53.55 81.03 62.82 79C63.35 78.7 63.87 78.39 64.39 78.07L64.38 78.06Z" fill="#80FFEA"/>
</g>
<defs>
<clipPath id="clip0_71_3721">
<rect width="84.38" height="84.38" fill="white"/>
</clipPath>
</defs>
</svg>
