<svg width="85" height="85" viewBox="0 0 85 85" fill="none" xmlns="http://www.w3.org/2000/svg">
<g clip-path="url(#clip0_71_3730)">
<path d="M75.82 67.66C68.17 65.77 57.85 63.47 54.77 62.78C54.77 62.75 54.75 62.71 54.75 62.68C53.13 63.87 45.07 69.46 37.6 68.57C32.3 67.93 34.32 64.15 35.17 62.86C30.83 63.82 16.52 67.03 9.55004 68.92C17.29 78.35 29.03 84.38 42.19 84.38C55.35 84.38 68.12 77.81 75.83 67.66H75.82Z" fill="white"/>
<path d="M60.6701 64.11C59.0401 63.74 57.6101 63.42 56.48 63.17C51.89 67.13 50.21 75.67 50.21 75.67C39.46 76.39 29.61 74.1199 29.61 74.1199C29.46 70.4599 30.57 66.4999 32.25 63.5099C31.15 63.7599 29.89 64.0399 28.52 64.3499C25.77 68.8299 26.58 73.0299 25.46 74.6499C25.46 74.6499 24.42 75.4199 23.99 75.8699C23.78 76.0899 23.41 77.6599 22.98 79.7399C28.74 82.6899 35.27 84.3699 42.19 84.3699C48.29 84.3699 54.09 83.07 59.33 80.7299C59.19 79.82 59.08 79.1299 59.03 78.8199C58.9 78.0199 55.41 75.9599 55.41 75.9599C55.1 71.6499 57.09 67.42 58.97 65.5C59.51 64.95 60.1 64.49 60.68 64.09L60.6701 64.11Z" fill="#47D3FF"/>
<path d="M28.49 69.6699C28.4 69.6699 28.31 69.6699 28.22 69.6499C27.61 69.5699 27.28 69.2699 27.11 69.0399C26.73 68.5199 26.82 67.8899 26.83 67.8199C26.87 67.5899 27.06 67.4199 27.32 67.4499L29.76 67.6999C29.89 67.7099 30.01 67.7799 30.08 67.8899C30.15 67.9999 30.18 68.1299 30.15 68.2599C30.03 68.7699 29.52 69.6799 28.48 69.6799L28.49 69.6699ZM27.78 68.3999C27.78 68.3999 27.82 68.4799 27.84 68.5099C27.94 68.6399 28.1 68.7199 28.34 68.7599C28.67 68.8099 28.88 68.6899 29.03 68.5299L27.78 68.3999Z" fill="black"/>
<path d="M53.86 71.48C53.74 71.48 53.62 71.48 53.49 71.45C52.88 71.36 52.41 71.09 52.11 70.67C51.64 70.01 51.7701 69.23 51.7901 69.14C51.8301 68.91 52.04 68.74 52.28 68.78L55.58 69.17C55.71 69.19 55.83 69.25 55.9 69.36C55.97 69.47 56 69.6 55.96 69.73C55.79 70.37 55.15 71.49 53.86 71.49V71.48ZM52.68 69.73C52.7 69.87 52.7501 70.02 52.8501 70.16C53.0001 70.37 53.2701 70.51 53.6301 70.57C54.2901 70.67 54.6701 70.32 54.8801 69.99L52.6901 69.73H52.68Z" fill="black"/>
</g>
<defs>
<clipPath id="clip0_71_3730">
<rect width="84.38" height="84.38" fill="white"/>
</clipPath>
</defs>
</svg>
