<svg width="85" height="85" viewBox="0 0 85 85" fill="none" xmlns="http://www.w3.org/2000/svg">
<g clip-path="url(#clip0_71_3729)">
<path d="M62.225 79.3L59.815 72.4001C40.805 77.9401 28.695 72.4001 28.695 72.4001L27.065 81.5701C31.755 83.3701 36.855 84.3801 42.185 84.3801C49.445 84.3801 56.265 82.53 62.225 79.3Z" fill="#47D3FF"/>
<path d="M35.605 62.6401C35.605 62.6401 35.575 62.6401 35.555 62.6401V62.7701C31.735 63.6101 16.735 66.9601 9.54504 68.9201C15.215 75.8301 23.035 80.8901 31.975 83.1201C32.315 75.5001 33.265 67.2401 35.625 62.6301C35.625 62.6301 35.615 62.6301 35.605 62.6301V62.6401Z" fill="#FF4135"/>
<path d="M75.825 67.6501C68.175 65.7601 57.855 63.4601 54.775 62.7701C54.775 62.7401 54.765 62.7101 54.755 62.6801C54.705 62.6801 54.655 62.6601 54.605 62.6601C54.045 64.2501 51.285 70.7101 54.025 82.6801C62.825 80.1101 70.435 74.7701 75.835 67.6501H75.825Z" fill="#FF4135"/>
<path d="M43.345 66.7301C43.345 66.3501 43.635 66.0201 44.025 66.0301C44.415 66.0301 44.735 66.3201 44.745 66.7001C44.745 67.0801 44.445 67.3901 44.055 67.4101H44.025C43.655 67.4001 43.345 67.1001 43.345 66.7301ZM42.185 67.3001C41.805 67.2501 41.545 66.9001 41.585 66.5201C41.655 66.1401 42.005 65.8801 42.375 65.9201C42.755 65.9701 43.025 66.3201 42.975 66.7001C42.925 67.0601 42.615 67.3101 42.255 67.3001H42.185ZM45.115 66.6701C45.055 66.2901 45.315 65.9301 45.705 65.8701C46.085 65.8101 46.435 66.0801 46.495 66.4501C46.555 66.8301 46.295 67.1801 45.905 67.2401C45.905 67.2401 45.825 67.2401 45.775 67.2401C45.445 67.2301 45.1551 66.9901 45.1051 66.6601L45.115 66.6701ZM40.345 66.8801C39.985 66.7701 39.775 66.3701 39.905 66.0101C40.025 65.6401 40.415 65.4501 40.785 65.5601C41.145 65.6701 41.355 66.0701 41.235 66.4301C41.135 66.7301 40.845 66.9201 40.545 66.9201C40.485 66.9201 40.425 66.9101 40.345 66.8801ZM46.8551 66.3701C46.765 66.0101 46.9851 65.6201 47.3551 65.5301C47.7351 65.4301 48.115 65.6501 48.215 66.0101C48.315 66.3901 48.085 66.7601 47.715 66.8601C47.655 66.8801 47.575 66.8901 47.515 66.8801C47.215 66.8801 46.9351 66.6701 46.8551 66.3601V66.3701ZM38.615 66.1301C38.275 65.9401 38.155 65.5201 38.345 65.1901C38.535 64.8501 38.955 64.7201 39.295 64.9101C39.635 65.1001 39.755 65.5201 39.565 65.8601C39.435 66.0901 39.185 66.2201 38.935 66.2101C38.825 66.2101 38.715 66.1801 38.615 66.1301ZM48.565 65.9001C48.425 65.5401 48.615 65.1501 48.975 65.0101C49.335 64.8801 49.735 65.0501 49.865 65.4101C49.995 65.7801 49.825 66.1701 49.455 66.3101C49.375 66.3401 49.275 66.3601 49.195 66.3501C48.925 66.3501 48.665 66.1701 48.565 65.9001ZM50.225 65.2701C50.055 64.9201 50.205 64.5101 50.555 64.3501H50.565C50.915 64.2001 51.325 64.3501 51.495 64.6901C51.6551 65.0401 51.495 65.4601 51.145 65.6101H51.155C51.045 65.6601 50.945 65.6801 50.825 65.6701C50.575 65.6701 50.335 65.5201 50.225 65.2701ZM37.055 65.0601C36.765 64.8101 36.735 64.3801 36.985 64.0801C37.235 63.7901 37.675 63.7501 37.965 64.0001C38.255 64.2501 38.295 64.6801 38.045 64.9801C37.895 65.1501 37.695 65.2301 37.485 65.2201C37.335 65.2201 37.185 65.1701 37.055 65.0601ZM51.825 64.5201C51.635 64.1801 51.7651 63.7601 52.1051 63.5801C52.4451 63.4001 52.865 63.5201 53.045 63.8701C53.235 64.2101 53.105 64.6301 52.765 64.8001C52.655 64.8601 52.535 64.8901 52.415 64.8801C52.175 64.8801 51.935 64.7501 51.825 64.5201ZM35.725 63.6301C35.505 63.3001 35.605 62.8701 35.925 62.6601C36.255 62.4501 36.685 62.5501 36.895 62.8701C37.105 63.1901 37.005 63.6201 36.685 63.8301C36.555 63.9101 36.425 63.9501 36.285 63.9401C36.055 63.9401 35.845 63.8201 35.725 63.6301ZM53.365 63.6801C53.165 63.3501 53.2751 62.9201 53.6051 62.7201C53.9251 62.5101 54.355 62.6201 54.555 62.9501C54.765 63.2801 54.655 63.7001 54.325 63.9001C54.205 63.9701 54.075 64.0101 53.945 64.0001C53.715 64.0001 53.495 63.8701 53.365 63.6701V63.6801Z" fill="white"/>
</g>
<defs>
<clipPath id="clip0_71_3729">
<rect width="84.38" height="84.38" fill="white"/>
</clipPath>
</defs>
</svg>
