<svg width="85" height="85" viewBox="0 0 85 85" fill="none" xmlns="http://www.w3.org/2000/svg">
<g clip-path="url(#clip0_71_3723)">
<path d="M55.0001 62.8301C54.7301 61.6601 54.55 59.5201 54.49 58.4801C54.46 57.9601 54.0401 57.5501 53.4501 57.9101C50.5801 59.6401 41.33 61.0101 36.18 58.6401C35.82 58.4701 35.3601 58.9201 35.3401 59.5101C35.3201 60.2101 35.34 61.7001 35.17 62.8601C30.83 63.8201 16.52 67.0301 9.55004 68.9201C17.29 78.3501 29.0301 84.3801 42.1901 84.3801C55.3501 84.3801 68.12 77.8101 75.83 67.6601C68.34 65.8101 58.3201 63.5701 55.0001 62.8401V62.8301Z" fill="#FFDD2A"/>
<path d="M51.1901 65.72C51.1901 65.72 51.1701 65.72 51.1601 65.72C50.9101 65.7 50.7301 65.49 50.7401 65.24C50.7401 65.22 50.9001 62.95 50.0601 61.26C49.9501 61.04 50.0401 60.77 50.2601 60.66C50.4801 60.55 50.75 60.64 50.86 60.86C51.81 62.78 51.6401 65.2 51.6301 65.31C51.6101 65.55 51.4101 65.73 51.1801 65.73L51.1901 65.72Z" fill="black"/>
<path d="M38.8201 65.9301C38.6101 65.9301 38.4201 65.7801 38.3801 65.5601C38.3601 65.4801 38.0101 63.5001 38.8001 61.5901C38.9001 61.3601 39.1601 61.2501 39.3901 61.3501C39.6201 61.4401 39.7301 61.7101 39.6301 61.9401C38.9401 63.6001 39.2601 65.3801 39.2601 65.4001C39.3001 65.6401 39.1401 65.8801 38.9001 65.9201C38.8701 65.9201 38.8401 65.9201 38.8201 65.9201V65.9301Z" fill="black"/>
<path d="M44.8101 66.2501C44.8101 66.2501 44.7801 66.2501 44.7601 66.2501C44.5101 66.2201 44.3301 66.0001 44.3601 65.7501C44.3601 65.7301 44.5501 63.9401 44.2201 61.9201C44.1801 61.6701 44.3501 61.4401 44.5901 61.4001C44.8301 61.3601 45.0701 61.5301 45.1101 61.7701C45.4601 63.9201 45.2601 65.7601 45.2601 65.8401C45.2301 66.0701 45.0401 66.2401 44.8101 66.2401V66.2501Z" fill="black"/>
</g>
<defs>
<clipPath id="clip0_71_3723">
<rect width="84.38" height="84.38" fill="white"/>
</clipPath>
</defs>
</svg>
