<svg width="85" height="85" viewBox="0 0 85 85" fill="none" xmlns="http://www.w3.org/2000/svg">
<g clip-path="url(#clip0_71_3726)">
<path d="M66.61 65.46C70.15 63 72.51 55.16 67.97 51.21C64.4 48.11 58.49 49.49 52.48 51.75L54.1522 62.8738C44.1346 65.113 40.98 68.82 39.35 68.52C36.89 68.07 35.89 61.22 35.89 61.22L36.12 55.33C34.67 55.25 33.46 55.51 32.38 55.72C31.5 55.89 30.62 56.12 29.81 56.51C25.79 58.41 26.16 62.62 26.76 64.75C20.94 66.08 13.85 67.75 9.55001 68.92C17.29 78.35 29.03 84.38 42.19 84.38C55.35 84.38 68.12 77.81 75.83 67.66C72.96 66.95 69.71 66.18 66.61 65.47V65.46Z" fill="#19ECC9"/>
<path d="M66.21 64.81C54.31 62.8 45.89 67.74 40.86 70.69L40.77 70.74L40.75 70.52C40.73 70.3 40.55 70.14 40.32 70.16C40.1 70.18 39.94 70.37 39.96 70.59L40.01 71.19L39.88 71.26C39.15 71.68 38.28 71.53 37.66 70.9L37.83 69.92C37.87 69.7 37.72 69.5 37.5 69.46C37.27 69.42 37.08 69.57 37.04 69.79L36.98 70.13C32.65 65.11 27.43 64.33 27.2 64.3C26.99 64.27 26.78 64.42 26.75 64.64C26.72 64.86 26.87 65.06 27.09 65.09C27.15 65.09 32.6 65.91 36.81 71.15L35.96 76.06C35.92 76.28 36.07 76.48 36.29 76.52C36.31 76.52 36.34 76.52 36.36 76.52C36.55 76.52 36.72 76.38 36.75 76.19L37.51 71.8C37.97 72.12 38.49 72.3 39.01 72.3C39.37 72.3 39.74 72.2 40.08 72.04L40.6 78.03C40.62 78.24 40.79 78.4 41 78.4C41.01 78.4 41.02 78.4 41.03 78.4C41.25 78.38 41.41 78.19 41.39 77.97L40.84 71.64L41.26 71.4C46.2 68.5 54.46 63.65 66.08 65.62C66.31 65.66 66.5 65.51 66.54 65.29C66.58 65.07 66.43 64.87 66.21 64.83V64.81Z" fill="black"/>
<path d="M54.7804 62.7655C54.8604 62.7655 54.9504 62.7455 55.0204 62.6855C55.0504 62.6655 58.3404 60.2955 62.7504 60.2955C62.7904 60.2955 62.8504 60.2955 62.8604 60.2955C63.0804 60.2955 63.2603 60.1155 63.2603 59.8955C63.2603 59.6755 63.0804 59.4955 62.8604 59.4955C58.1504 59.4355 54.6803 61.9255 54.5403 62.0355C54.3603 62.1655 54.3204 62.4155 54.4504 62.5955C54.5304 62.7055 54.6504 62.7555 54.7704 62.7555L54.7804 62.7655Z" fill="black"/>
<path d="M34.8561 61.9034C34.928 62.0653 35.1011 62.1533 35.2696 62.131C35.3093 62.1257 35.3489 62.1205 35.3859 62.0954C35.5862 62.0083 35.6749 61.7645 35.5878 61.5642C35.5476 61.4888 34.6699 59.5878 32.3645 58.1787C32.1776 58.0623 31.9337 58.1249 31.8173 58.3119C31.7009 58.4988 31.7635 58.7427 31.9504 58.8591C34.0365 60.1358 34.8535 61.8836 34.8548 61.8935L34.8561 61.9034Z" fill="black"/>
</g>
<defs>
<clipPath id="clip0_71_3726">
<rect width="84.38" height="84.38" fill="white"/>
</clipPath>
</defs>
</svg>
