<svg width="85" height="85" viewBox="0 0 85 85" fill="none" xmlns="http://www.w3.org/2000/svg">
<g clip-path="url(#clip0_71_3722)">
<path d="M75.82 67.64C69.64 66.11 61.74 64.32 57.3 63.33C55.32 66.27 51.87 73.22 51.87 73.22L35.25 73.85L30.41 63.92C24.23 65.32 14.8 67.49 9.55001 68.92C17.29 78.35 29.03 84.38 42.19 84.38C55.35 84.38 68.12 77.81 75.83 67.66L75.82 67.64Z" fill="#47D3FF"/>
<g opacity="0.85">
<path d="M40.4427 77.3904H40.4227C39.4027 77.3904 38.7227 76.8704 38.3227 76.3304C37.9527 76.8304 37.2327 77.3004 36.1027 77.2704C35.4627 77.2604 34.9427 77.0504 34.5727 76.6604C34.2627 76.3304 34.1027 75.9404 34.0327 75.6204C33.2427 75.9004 32.0827 75.9904 31.3027 75.0004C30.7427 74.3004 30.9727 73.4904 31.3627 72.8904C30.8427 72.8004 30.2027 72.5504 29.8027 71.8704C29.3927 71.1804 29.5627 70.4904 29.8527 69.9804C29.3827 69.8804 28.8327 69.6204 28.4927 68.9704C28.1527 68.3104 28.3427 67.7004 28.6127 67.2604C28.1527 67.2104 27.6127 67.0504 27.2327 66.6704C27.0827 66.5104 27.0827 66.2604 27.2327 66.1004C27.3927 65.9404 27.6427 65.9504 27.8027 66.1004C28.2127 66.5104 29.1027 66.5004 29.4127 66.4604C29.5827 66.4304 29.7627 66.5304 29.8327 66.7004C29.9027 66.8604 29.8627 67.0504 29.7227 67.1704C29.7227 67.1704 28.8426 67.9104 29.2026 68.6004C29.6026 69.3604 30.5527 69.2304 30.5927 69.2304C30.7627 69.2004 30.9427 69.3004 31.0127 69.4604C31.0827 69.6204 31.0427 69.8104 30.9127 69.9304C30.8727 69.9604 30.0327 70.7004 30.4827 71.4704C30.9727 72.3004 32.1027 72.1204 32.1227 72.1204C32.2927 72.0904 32.4727 72.1804 32.5427 72.3404C32.6227 72.5004 32.5826 72.6904 32.4526 72.8104C32.4426 72.8204 31.3627 73.8204 31.9127 74.5104C32.7127 75.5204 34.0727 74.7204 34.1327 74.6904C34.2527 74.6204 34.4127 74.6204 34.5427 74.6904C34.6727 74.7604 34.7427 74.9004 34.7427 75.0404C34.7427 75.1804 34.7627 76.4504 36.1127 76.4804C37.7127 76.5304 37.8827 75.4204 37.8927 75.3804C37.9127 75.1904 38.0627 75.0504 38.2527 75.0304C38.4627 75.0104 38.6126 75.1304 38.6727 75.3104C38.6927 75.3604 39.0827 76.5804 40.4327 76.5904H40.4427C41.7927 76.5904 42.0227 75.4804 42.0427 75.3504C42.0727 75.1804 42.2027 75.0504 42.3727 75.0204C42.5427 74.9904 42.7127 75.0704 42.7927 75.2204C42.8227 75.2704 43.4527 76.3704 44.7227 76.4104C45.9627 76.4504 46.3526 75.2604 46.3526 75.2504C46.4026 75.1004 46.5327 74.9904 46.6827 74.9704C46.8427 74.9504 46.9926 75.0204 47.0726 75.1604C47.0726 75.1704 47.9226 76.5104 49.0426 76.4204C49.3426 76.3904 49.5526 76.2904 49.6726 76.1304C49.8826 75.8404 49.8127 75.4104 49.8127 75.4104C49.7727 75.2104 49.8926 75.0204 50.0726 74.9604C50.2626 74.8904 50.4727 74.9804 50.5627 75.1604C50.6127 75.2504 51.0627 76.0404 52.1827 75.7104C52.4927 75.6204 52.5926 75.4704 52.6326 75.3604C52.8126 74.9204 52.5027 74.1604 52.3727 73.9304C52.2827 73.7704 52.3226 73.5704 52.4526 73.4404C52.5826 73.3204 52.7927 73.3004 52.9427 73.4004C53.0027 73.4404 54.3226 74.2904 55.1726 73.3404C55.7626 72.6704 54.7327 71.6204 54.7227 71.6104C54.6027 71.4804 54.5727 71.2904 54.6527 71.1404C54.7327 70.9804 54.9127 70.9004 55.0827 70.9404C55.1327 70.9404 56.2327 71.1704 56.7527 70.3804C57.2427 69.6404 56.4427 68.8504 56.4027 68.8204C56.2727 68.7004 56.2426 68.5004 56.3226 68.3404C56.4026 68.1804 56.5926 68.1004 56.7626 68.1404C56.8026 68.1404 57.7527 68.3304 58.1827 67.5904C58.5827 66.9204 57.7527 66.1404 57.7427 66.1304C57.6127 66.0104 57.5727 65.8204 57.6527 65.6604C57.7327 65.5004 57.9027 65.4104 58.0827 65.4504C58.3927 65.5104 59.2827 65.5704 59.7127 65.1804C59.8727 65.0304 60.1327 65.0404 60.2727 65.2104C60.4227 65.3704 60.4127 65.6304 60.2427 65.7704C59.8427 66.1404 59.2927 66.2604 58.8327 66.2904C59.0827 66.7504 59.2327 67.3704 58.8627 68.0104C58.4927 68.6404 57.9226 68.8704 57.4526 68.9504C57.7226 69.4804 57.8527 70.1704 57.4027 70.8404C56.9727 71.5004 56.3226 71.7204 55.7926 71.7804C56.1426 72.4004 56.3327 73.2204 55.7427 73.9004C55.0527 74.6904 54.1327 74.7204 53.3927 74.5104C53.4727 74.8804 53.4927 75.3104 53.3427 75.6904C53.2327 75.9704 52.9627 76.3304 52.3727 76.5004C51.5627 76.7304 50.9326 76.5604 50.4826 76.2704C50.4426 76.3904 50.3727 76.5204 50.2827 76.6304C50.0227 76.9804 49.6127 77.1904 49.0827 77.2404C48.0527 77.3504 47.2226 76.6604 46.7626 76.1504C46.3826 76.7004 45.7327 77.2504 44.6527 77.2404C43.6427 77.2104 42.9327 76.7004 42.5127 76.2604C42.1827 76.8404 41.5327 77.4204 40.4027 77.4204L40.4427 77.3904Z" fill="black"/>
</g>
</g>
<defs>
<clipPath id="clip0_71_3722">
<rect width="84.38" height="84.38" fill="white"/>
</clipPath>
</defs>
</svg>
