<svg width="85" height="85" viewBox="0 0 85 85" fill="none" xmlns="http://www.w3.org/2000/svg">
<g clip-path="url(#clip0_71_3728)">
<path d="M63.7901 64.83C59.8801 63.93 56.5101 63.18 54.8801 62.82C53.6001 63.69 45.4301 68.97 37.3401 68.26C31.5601 67.76 34.4501 63.76 35.1901 62.85C33.6801 63.19 30.8801 63.81 27.5901 64.56C26.9501 65.75 27.4701 69.01 25.6801 74.64C25.0501 76.63 24.6401 78.61 24.3801 80.46C29.7801 82.97 35.7901 84.38 42.1401 84.38C49.6001 84.38 56.5901 82.43 62.6701 79.04C61.8501 76.15 61.1901 73.17 61.3701 70.97C61.6901 67.12 62.7901 65.5 63.8001 64.82L63.7901 64.83Z" fill="#19ECC9"/>
</g>
<defs>
<clipPath id="clip0_71_3728">
<rect width="84.38" height="84.38" fill="white"/>
</clipPath>
</defs>
</svg>
