<svg width="85" height="85" viewBox="0 0 85 85" fill="none" xmlns="http://www.w3.org/2000/svg">
<g clip-path="url(#clip0_71_3725)">
<path d="M42.19 84.36C55.92 84.36 68.12 77.79 75.83 67.64C73.5 67.06 70.91 66.45 68.36 65.85C46.7 70.34 29.38 68.43 19.56 66.41C15.8 67.3 12.16 68.19 9.55002 68.9C17.29 78.33 29.03 84.36 42.19 84.36Z" fill="#FFDD2A"/>
<path d="M29.94 82.34L28.75 79.02C28.75 79.02 30.25 79.52 30.63 80.55C30.81 81.05 29.94 81.74 29.94 82.35V82.34Z" fill="#AD7E14"/>
<path d="M43.26 83.42L44.43 79.27C44.43 79.27 41.76 79.9 41.79 80.64C41.82 81.38 42.87 82.38 43.26 83.42Z" fill="#AD7E14"/>
<path d="M53.48 82.4L51.48 78.96C51.48 78.96 53.68 79.44 53.85 80.02C54.02 80.6 53.32 81.89 53.48 82.4Z" fill="#AD7E14"/>
<path d="M54.12 82.11C54.03 82.02 53.78 81.78 54.14 81.07C54.48 80.4 54.34 79.78 53.73 79.33C51.82 77.89 44.76 78.33 42.33 79.57L43.37 72.7C43.4 72.5 43.26 72.3 43.06 72.27C42.85 72.23 42.66 72.38 42.63 72.58L41.43 80.48C41.38 80.71 41.42 80.94 41.56 81.16L41.9 81.68C42.38 82.4 42.79 83.02 42.72 83.23C42.67 83.37 42.31 83.55 41.63 83.76C39.98 84.29 31.59 83.53 30.57 82.01C30.49 81.89 30.43 81.75 30.67 81.47C30.91 81.19 31 80.89 30.98 80.58C30.98 80.58 30.98 80.57 30.98 80.56L31.1 78.15C31.1 77.94 30.95 77.77 30.74 77.76C30.5 77.74 30.36 77.91 30.35 78.12L30.28 79.49C28.41 77.99 23.15 77.05 20.95 77.43L23.36 71.85C23.44 71.66 23.36 71.44 23.16 71.36C22.97 71.28 22.75 71.36 22.67 71.56L19.94 77.88C19.94 77.88 19.88 77.96 19.85 78C20.06 78.13 20.27 78.25 20.48 78.37V78.36C20.52 78.3 20.68 78.27 20.71 78.26C22.54 77.59 29.04 78.86 30.11 80.39C30.27 80.62 30.26 80.79 30.07 81.01C29.53 81.65 29.74 82.19 29.92 82.45C29.96 82.51 30.02 82.57 30.07 82.62C33.9 83.76 37.95 84.38 42.14 84.38C42.14 84.38 42.15 84.38 42.16 84.38C42.82 84.14 43.25 83.9 43.39 83.5C43.59 82.94 43.2 82.36 42.49 81.29L42.15 80.77C42.15 80.77 42.12 80.73 42.12 80.7V80.64C42.12 80.64 42.17 80.56 42.23 80.51C43.61 79.22 51.42 78.59 53.24 79.96C53.55 80.19 53.6 80.42 53.43 80.76C52.93 81.75 53.22 82.34 53.56 82.67C53.6 82.71 53.65 82.73 53.7 82.77C54.05 82.67 54.4 82.57 54.75 82.47C54.47 82.39 54.24 82.29 54.09 82.14L54.12 82.11Z" fill="#DDAC22"/>
<path d="M65.42 75.59C64.7 75.91 64.12 76.23 63.69 76.55L64.51 71.72C64.54 71.52 64.41 71.32 64.2 71.29C63.99 71.25 63.8 71.39 63.77 71.6L62.74 77.69C62.71 77.78 62.7 77.88 62.69 77.97V78C62.69 78 62.69 78.02 62.69 78.03C62.69 78.05 62.69 78.07 62.69 78.1C62.69 78.11 62.69 78.12 62.69 78.13C62.69 78.15 62.69 78.17 62.71 78.19C62.75 78.46 62.87 78.68 63.02 78.88C63.24 78.76 63.45 78.63 63.66 78.51C63.55 78.37 63.46 78.23 63.44 78.06L63.47 77.86C63.56 77.65 63.86 77.28 64.79 76.76C65.76 76.22 66.99 75.75 68.25 75.35C68.75 74.96 69.24 74.56 69.72 74.14C68.16 74.56 66.59 75.09 65.42 75.61V75.59Z" fill="#DDAC22"/>
<path d="M65.01 76.2C65.01 76.2 62.98 77.2499 63.05 78.0499C63.07 78.2499 63.2 78.46 63.37 78.66C63.93 78.33 64.48 77.98 65.03 77.63L65.01 76.2Z" fill="#AD7E14"/>
<path d="M20.23 78.13C20.23 78.13 20.21 78.16 20.2 78.18C20.62 78.44 21.05 78.69 21.49 78.94L22.92 77.69C22.92 77.69 20.65 77.63 20.23 78.13Z" fill="#AD7E14"/>
</g>
<defs>
<clipPath id="clip0_71_3725">
<rect width="84.38" height="84.38" fill="white"/>
</clipPath>
</defs>
</svg>
