<svg width="85" height="85" viewBox="0 0 85 85" fill="none" xmlns="http://www.w3.org/2000/svg">
<g clip-path="url(#clip0_71_3731)">
<path d="M75.8201 67.66C68.1701 65.77 57.85 63.47 54.77 62.78C54.77 62.75 54.7501 62.71 54.7501 62.68C53.1301 63.87 45.0701 69.46 37.6001 68.57C32.3001 67.93 34.3201 64.15 35.1701 62.86C30.8301 63.82 16.52 67.03 9.55004 68.92C17.29 78.35 29.0301 84.38 42.1901 84.38C55.3501 84.38 68.12 77.81 75.83 67.66H75.8201Z" fill="#FF4135"/>
<path d="M55.46 78.43C57.4759 78.43 59.1101 76.8092 59.1101 74.81C59.1101 72.8107 57.4759 71.19 55.46 71.19C53.4442 71.19 51.8101 72.8107 51.8101 74.81C51.8101 76.8092 53.4442 78.43 55.46 78.43Z" fill="#FFE1E1"/>
<path d="M60.8201 64.1499C61.1401 65.8499 62.6401 67.1399 64.4401 67.1399C65.6501 67.1399 66.7201 66.5599 67.3901 65.6599C65.0701 65.1199 62.8101 64.5999 60.8201 64.1499Z" fill="#FFE1E1"/>
<path d="M35.0201 80.3799C34.0901 78.8399 32.1001 78.3299 30.5701 79.2499C29.4901 79.8999 28.9401 81.0899 29.0301 82.2799C30.9601 82.9099 32.9401 83.4299 34.9901 83.7799C35.6201 82.7799 35.6801 81.4699 35.0301 80.3899L35.0201 80.3799Z" fill="#FFE1E1"/>
<path d="M19.4501 72.4799C21.4501 72.4799 23.08 70.8699 23.08 68.8799C23.08 67.6799 22.4801 66.6199 21.5701 65.9699C19.7701 66.3899 17.96 66.8199 16.24 67.2399C15.98 67.7399 15.8201 68.2899 15.8201 68.8799C15.8201 70.8699 17.4401 72.4799 19.4501 72.4799Z" fill="#FFE1E1"/>
<path d="M37.6001 68.58C32.5801 67.98 34.12 64.55 35.02 63.1C35.07 63.02 35.11 62.94 35.15 62.88C34.9 62.94 34.6001 63 34.2901 63.07C32.0001 65.51 30.28 68.83 32.21 70.73C34.56 73.04 38.27 70.04 39.55 68.66C38.9 68.67 38.24 68.66 37.59 68.58H37.6001Z" fill="white"/>
<path d="M54.77 62.79C54.77 62.79 54.7501 62.72 54.7501 62.69C53.2801 63.77 46.4601 68.49 39.6101 68.65C39.7301 69.91 40.3201 72.85 43.1601 72.95C46.6401 73.08 51.73 69.24 55.27 62.89C55.1 62.85 54.9201 62.81 54.7801 62.78L54.77 62.79Z" fill="white"/>
</g>
<defs>
<clipPath id="clip0_71_3731">
<rect width="84.38" height="84.38" fill="white"/>
</clipPath>
</defs>
</svg>
