<svg width="85" height="85" viewBox="0 0 85 85" fill="none" xmlns="http://www.w3.org/2000/svg">
<g clip-path="url(#clip0_71_3724)">
<path d="M56.3 63.12C55.73 63.03 55.16 62.94 54.6 62.86C50.8 65.75 43.37 71.53 41.16 71.53C40.05 71.53 34.44 65.81 33.52 63.23C27.94 64.48 15.8 67.23 9.55002 68.92C17.29 78.35 28.7852 84.3212 42.19 84.38C55.5949 84.4389 68.1551 77.8643 75.83 67.66C69.15 66.01 60.45 64.05 56.29 63.12H56.3Z" fill="white"/>
<path d="M54.47 61.47L41.16 71.52L45.78 75.99C46.3 76.46 47.1 76.4 47.55 75.86L58.56 63.48L54.48 61.47H54.47Z" fill="#C5E2FF"/>
<path d="M35.62 61.85L41.16 71.52L34.26 74.67C33.48 75.26 32.36 74.75 32.3 73.78L31.22 63.63L35.62 61.85Z" fill="#C5E2FF"/>
<path d="M36.53 73.64C36.53 73.64 39.47 77.46 40.14 77.93C40.81 78.4 44.44 74.71 44.44 74.71L41.15 71.53L36.52 73.64H36.53Z" fill="#0056D3"/>
<path d="M36.34 83.96C38.26 84.23 40.21 84.38 42.2 84.38C42.21 84.38 42.23 84.38 42.24 84.38L41.92 75.86L38.93 75.94L36.34 83.97V83.96Z" fill="#0056D3"/>
<path d="M51.82 82C51.84 82.24 52.03 82.42 52.27 82.42C52.27 82.42 52.29 82.42 52.3 82.42L55.54 82.2C56.54 81.87 57.52 81.5 58.48 81.1L52.24 81.52C51.99 81.54 51.8 81.75 51.82 82Z" fill="black"/>
</g>
<defs>
<clipPath id="clip0_71_3724">
<rect width="84.38" height="84.38" fill="white"/>
</clipPath>
</defs>
</svg>
