<svg width="85" height="45" viewBox="0 0 85 45" fill="none" xmlns="http://www.w3.org/2000/svg">
<g clip-path="url(#clip0_71_3721)">
<path d="M75.82 27.66C68.17 25.77 57.85 23.47 54.77 22.78C54.77 22.75 54.75 22.71 54.75 22.68C53.13 23.87 45.07 29.46 37.6 28.57C32.3 27.93 34.32 24.15 35.17 22.86C30.83 23.82 16.52 27.03 9.55002 28.92C17.29 38.35 29.03 44.38 42.19 44.38C55.35 44.38 68.12 37.81 75.83 27.66H75.82Z" fill="#19ECC9"/>
<path d="M36.77 30.79C46.41 30.79 57.64 29.63 69.63 26.17C69.25 26.08 68.87 25.99 68.49 25.9C44.9 32.47 24.41 30.17 13.44 27.91C13.02 28.01 12.62 28.12 12.22 28.22C17.86 29.45 26.38 30.78 36.77 30.78V30.79Z" fill="#80FFEA"/>
<path d="M73.72 30.2C49.29 37.28 27.57 36 14.41 33.95C14.68 34.19 14.96 34.41 15.23 34.64C20.76 35.47 27.68 36.14 35.62 36.14C46.53 36.14 59.35 34.86 73.02 30.99C73.26 30.73 73.49 30.47 73.72 30.21V30.2Z" fill="#80FFEA"/>
<path d="M64.38 38.06C48.92 41.7 35.04 41.66 24.63 40.56C25.17 40.81 25.72 41.05 26.27 41.28C29.62 41.59 33.27 41.79 37.21 41.79C44.87 41.79 53.55 41.03 62.82 39C63.35 38.7 63.87 38.39 64.39 38.07L64.38 38.06Z" fill="#80FFEA"/>
</g>
<defs>
<clipPath id="clip0_71_3721">
<rect width="84.38" height="84.38" fill="white" transform="translate(0 -40)"/>
</clipPath>
</defs>
</svg>
