<svg width="85" height="45" viewBox="0 0 85 45" fill="none" xmlns="http://www.w3.org/2000/svg">
<g clip-path="url(#clip0_71_3722)">
<path d="M75.82 27.64C69.64 26.11 61.74 24.32 57.3 23.33C55.32 26.27 51.87 33.22 51.87 33.22L35.25 33.85L30.41 23.92C24.23 25.32 14.8 27.49 9.55001 28.92C17.29 38.35 29.03 44.38 42.19 44.38C55.35 44.38 68.12 37.81 75.83 27.66L75.82 27.64Z" fill="#47D3FF"/>
<g opacity="0.85">
<path d="M40.4427 37.3904H40.4227C39.4027 37.3904 38.7227 36.8704 38.3227 36.3304C37.9527 36.8304 37.2327 37.3004 36.1027 37.2704C35.4627 37.2604 34.9427 37.0504 34.5727 36.6604C34.2627 36.3304 34.1027 35.9404 34.0327 35.6204C33.2427 35.9004 32.0827 35.9904 31.3027 35.0004C30.7427 34.3004 30.9727 33.4904 31.3627 32.8904C30.8427 32.8004 30.2027 32.5504 29.8027 31.8704C29.3927 31.1804 29.5627 30.4904 29.8527 29.9804C29.3827 29.8804 28.8327 29.6204 28.4927 28.9704C28.1527 28.3104 28.3427 27.7004 28.6127 27.2604C28.1527 27.2104 27.6127 27.0504 27.2327 26.6704C27.0827 26.5104 27.0827 26.2604 27.2327 26.1004C27.3927 25.9404 27.6427 25.9504 27.8027 26.1004C28.2127 26.5104 29.1027 26.5004 29.4127 26.4604C29.5827 26.4304 29.7627 26.5304 29.8327 26.7004C29.9027 26.8604 29.8627 27.0504 29.7227 27.1704C29.7227 27.1704 28.8426 27.9104 29.2026 28.6004C29.6026 29.3604 30.5527 29.2304 30.5927 29.2304C30.7627 29.2004 30.9427 29.3004 31.0127 29.4604C31.0827 29.6204 31.0427 29.8104 30.9127 29.9304C30.8727 29.9604 30.0327 30.7004 30.4827 31.4704C30.9727 32.3004 32.1027 32.1204 32.1227 32.1204C32.2927 32.0904 32.4727 32.1804 32.5427 32.3404C32.6227 32.5004 32.5826 32.6904 32.4526 32.8104C32.4426 32.8204 31.3627 33.8204 31.9127 34.5104C32.7127 35.5204 34.0727 34.7204 34.1327 34.6904C34.2527 34.6204 34.4127 34.6204 34.5427 34.6904C34.6727 34.7604 34.7427 34.9004 34.7427 35.0404C34.7427 35.1804 34.7627 36.4504 36.1127 36.4804C37.7127 36.5304 37.8827 35.4204 37.8927 35.3804C37.9127 35.1904 38.0627 35.0504 38.2527 35.0304C38.4627 35.0104 38.6126 35.1304 38.6727 35.3104C38.6927 35.3604 39.0827 36.5804 40.4327 36.5904H40.4427C41.7927 36.5904 42.0227 35.4804 42.0427 35.3504C42.0727 35.1804 42.2027 35.0504 42.3727 35.0204C42.5427 34.9904 42.7127 35.0704 42.7927 35.2204C42.8227 35.2704 43.4527 36.3704 44.7227 36.4104C45.9627 36.4504 46.3526 35.2604 46.3526 35.2504C46.4026 35.1004 46.5327 34.9904 46.6827 34.9704C46.8427 34.9504 46.9926 35.0204 47.0726 35.1604C47.0726 35.1704 47.9226 36.5104 49.0426 36.4204C49.3426 36.3904 49.5526 36.2904 49.6726 36.1304C49.8826 35.8404 49.8127 35.4104 49.8127 35.4104C49.7727 35.2104 49.8926 35.0204 50.0726 34.9604C50.2626 34.8904 50.4727 34.9804 50.5627 35.1604C50.6127 35.2504 51.0627 36.0404 52.1827 35.7104C52.4927 35.6204 52.5926 35.4704 52.6326 35.3604C52.8126 34.9204 52.5027 34.1604 52.3727 33.9304C52.2827 33.7704 52.3226 33.5704 52.4526 33.4404C52.5826 33.3204 52.7927 33.3004 52.9427 33.4004C53.0027 33.4404 54.3226 34.2904 55.1726 33.3404C55.7626 32.6704 54.7327 31.6204 54.7227 31.6104C54.6027 31.4804 54.5727 31.2904 54.6527 31.1404C54.7327 30.9804 54.9127 30.9004 55.0827 30.9404C55.1327 30.9404 56.2327 31.1704 56.7527 30.3804C57.2427 29.6404 56.4427 28.8504 56.4027 28.8204C56.2727 28.7004 56.2426 28.5004 56.3226 28.3404C56.4026 28.1804 56.5926 28.1004 56.7626 28.1404C56.8026 28.1404 57.7527 28.3304 58.1827 27.5904C58.5827 26.9204 57.7527 26.1404 57.7427 26.1304C57.6127 26.0104 57.5727 25.8204 57.6527 25.6604C57.7327 25.5004 57.9027 25.4104 58.0827 25.4504C58.3927 25.5104 59.2827 25.5704 59.7127 25.1804C59.8727 25.0304 60.1327 25.0404 60.2727 25.2104C60.4227 25.3704 60.4127 25.6304 60.2427 25.7704C59.8427 26.1404 59.2927 26.2604 58.8327 26.2904C59.0827 26.7504 59.2327 27.3704 58.8627 28.0104C58.4927 28.6404 57.9226 28.8704 57.4526 28.9504C57.7226 29.4804 57.8527 30.1704 57.4027 30.8404C56.9727 31.5004 56.3226 31.7204 55.7926 31.7804C56.1426 32.4004 56.3327 33.2204 55.7427 33.9004C55.0527 34.6904 54.1327 34.7204 53.3927 34.5104C53.4727 34.8804 53.4927 35.3104 53.3427 35.6904C53.2327 35.9704 52.9627 36.3304 52.3727 36.5004C51.5627 36.7304 50.9326 36.5604 50.4826 36.2704C50.4426 36.3904 50.3727 36.5204 50.2827 36.6304C50.0227 36.9804 49.6127 37.1904 49.0827 37.2404C48.0527 37.3504 47.2226 36.6604 46.7626 36.1504C46.3826 36.7004 45.7327 37.2504 44.6527 37.2404C43.6427 37.2104 42.9327 36.7004 42.5127 36.2604C42.1827 36.8404 41.5327 37.4204 40.4027 37.4204L40.4427 37.3904Z" fill="black"/>
</g>
</g>
<defs>
<clipPath id="clip0_71_3722">
<rect width="84.38" height="84.38" fill="white" transform="translate(0 -40)"/>
</clipPath>
</defs>
</svg>
