<svg width="127" height="74" viewBox="0 0 127 74" fill="none" xmlns="http://www.w3.org/2000/svg">
<path fill-rule="evenodd" clip-rule="evenodd" d="M31.6042 0C14.1497 0 0 14.1497 0 31.6042V69.375C0 71.9293 2.07069 74 4.625 74H10.7917C13.346 74 15.4167 71.9293 15.4167 69.375V31.6042C15.4167 22.6641 22.6641 15.4167 31.6042 15.4167C40.5443 15.4167 47.7917 22.6641 47.7917 31.6042V69.375C47.7917 71.9293 49.8624 74 52.4167 74H58.5833C61.1376 74 63.2083 71.9293 63.2083 69.375V31.6042C63.2083 14.1497 49.0587 0 31.6042 0Z" fill="url(#paint0_linear_5_45)"/>
<path d="M94.7497 0C77.2952 0 63.1455 14.1497 63.1455 31.6042V69.375C63.1455 71.9293 65.2162 74 67.7705 74H73.9372C76.4915 74 78.5622 71.9293 78.5622 69.375V31.6042C78.5622 22.6641 85.8096 15.4167 94.7497 15.4167C103.69 15.4167 110.937 22.6641 110.937 31.6042V69.375C110.937 71.9293 113.008 74 115.562 74H121.729C124.283 74 126.354 71.9293 126.354 69.375V31.6042C126.354 14.1497 112.204 0 94.7497 0Z" fill="url(#paint1_linear_5_45)"/>
<defs>
<linearGradient id="paint0_linear_5_45" x1="0" y1="37" x2="63.2083" y2="37" gradientUnits="userSpaceOnUse">
<stop stop-color="#4F46E5"/>
<stop offset="1" stop-color="#6366F1"/>
</linearGradient>
<linearGradient id="paint1_linear_5_45" x1="94.7497" y1="0" x2="94.7497" y2="74" gradientUnits="userSpaceOnUse">
<stop stop-color="#4F46E5"/>
<stop offset="1" stop-color="#6366F1"/>
</linearGradient>
</defs>
</svg>
