<svg width="48" height="48" viewBox="0 0 48 48" fill="none" xmlns="http://www.w3.org/2000/svg">
<path d="M8.47562 32.9549C8.75711 32.6897 9.13873 32.5407 9.53661 32.5407H46.248C46.9168 32.5407 47.2516 33.3034 46.7785 33.7492L39.5244 40.5857C39.2429 40.851 38.8613 41 38.4634 41H1.75198C1.08327 41 0.74847 40.2373 1.22149 39.7914L8.47562 32.9549Z" fill="url(#paint0_linear_4581_2)"/>
<path d="M8.47562 7.4143C8.75708 7.14901 9.13871 6.99999 9.53661 7H46.248C46.9168 7 47.2516 7.76275 46.7785 8.20864L39.5244 15.0451C39.2429 15.3103 38.8613 15.4593 38.4634 15.4593H1.75198C1.08327 15.4593 0.74847 14.6966 1.22149 14.2508L8.47562 7.4143Z" fill="url(#paint1_linear_4581_2)"/>
<path d="M39.5244 20.1032C39.2429 19.838 38.8613 19.689 38.4634 19.689H1.75198C1.08327 19.689 0.74847 20.4518 1.22149 20.8976L8.47562 27.734C8.75708 27.9993 9.13871 28.1484 9.53661 28.1483H46.248C46.9168 28.1483 47.2516 27.3856 46.7785 26.9397L39.5244 20.1032Z" fill="url(#paint2_linear_4581_2)"/>
<defs>
<linearGradient id="paint0_linear_4581_2" x1="32.0987" y1="-2.32633" x2="8.94909" y2="44.6857" gradientUnits="userSpaceOnUse">
<stop stop-color="#00FFA3"/>
<stop offset="1" stop-color="#DC1FFF"/>
</linearGradient>
<linearGradient id="paint1_linear_4581_2" x1="32.0987" y1="-2.32633" x2="8.94909" y2="44.6857" gradientUnits="userSpaceOnUse">
<stop stop-color="#00FFA3"/>
<stop offset="1" stop-color="#DC1FFF"/>
</linearGradient>
<linearGradient id="paint2_linear_4581_2" x1="32.0987" y1="-2.32633" x2="8.94909" y2="44.6857" gradientUnits="userSpaceOnUse">
<stop stop-color="#00FFA3"/>
<stop offset="1" stop-color="#DC1FFF"/>
</linearGradient>
</defs>
</svg>
